<?xml version="1.0" encoding="utf-8"?>
<!-- Generator: Adobe Illustrator 27.7.0, SVG Export Plug-In . SVG Version: 6.00 Build 0)  -->
<svg version="1.1" id="Capa_1" xmlns="http://www.w3.org/2000/svg" xmlns:xlink="http://www.w3.org/1999/xlink" x="0px" y="0px"
	 viewBox="0 0 2234 443.5" style="enable-background:new 0 0 2234 443.5;" xml:space="preserve">
<style type="text/css">
	.st0{clip-path:url(#SVGID_00000005240700124990538650000017138036270860801679_);}
	.st1{clip-path:url(#SVGID_00000170254907138972183390000017427968666127191942_);fill:#FFFFFF;}
	.st2{clip-path:url(#SVGID_00000170254907138972183390000017427968666127191942_);fill:#FEFEFE;}
</style>
<g id="Ilustración_3_00000043448444503852883760000015567399201883069328_">
	<g>
		<defs>
			<rect id="SVGID_1_" x="1.1" width="2231.8" height="443.5"/>
		</defs>
		<clipPath id="SVGID_00000111876025985788109230000011918673406144139408_">
			<use xlink:href="#SVGID_1_"  style="overflow:visible;"/>
		</clipPath>
		<g style="clip-path:url(#SVGID_00000111876025985788109230000011918673406144139408_);">
			<defs>
				<rect id="SVGID_00000157266026943641350810000002678766379171099806_" x="1.1" y="0" width="2231.8" height="443.5"/>
			</defs>
			<clipPath id="SVGID_00000071546321227683694220000005280145839332516256_">
				<use xlink:href="#SVGID_00000157266026943641350810000002678766379171099806_"  style="overflow:visible;"/>
			</clipPath>
			<path style="clip-path:url(#SVGID_00000071546321227683694220000005280145839332516256_);fill:#FFFFFF;" d="M621.6,298.1
				c-7.7,3.4-22.3,6.3-38.9,6.3c-45.2,0-74.1-27.5-74.1-71.5c0-40.9,28-74.4,80.1-74.4c11.4,0,24,2,33.2,5.4l-6.9,32.3
				c-5.2-2.3-12.9-4.3-24.3-4.3c-22.9,0-37.8,16.3-37.5,39.2c0,25.8,17.2,39.2,38.3,39.2c10.3,0,18.3-1.7,24.9-4.3L621.6,298.1z"/>
			<path style="clip-path:url(#SVGID_00000071546321227683694220000005280145839332516256_);fill:#FFFFFF;" d="M726.3,301.5l-2.6-14
				h-0.9c-9.2,11.2-23.5,17.2-40.1,17.2c-28.3,0-45.2-20.6-45.2-42.9c0-36.3,32.6-53.8,82.1-53.5v-2c0-7.4-4-18-25.5-18
				c-14.3,0-29.5,4.9-38.6,10.6l-8-28c9.7-5.4,28.9-12.3,54.4-12.3c46.6,0,61.5,27.5,61.5,60.4v48.6c0,13.4,0.6,26.3,2,34H726.3z
				 M721.2,235.4c-22.9-0.3-40.6,5.2-40.6,22c0,11.2,7.4,16.6,17.2,16.6c10.9,0,19.7-7.2,22.6-16c0.6-2.3,0.9-4.9,0.9-7.4V235.4z"/>
			<path style="clip-path:url(#SVGID_00000071546321227683694220000005280145839332516256_);fill:#FFFFFF;" d="M797.9,206.3
				c0-17.5-0.6-32.3-1.1-44.6h37.8l2,19.2h0.9c5.7-8.9,20-22.3,43.2-22.3c28.6,0,50.1,18.9,50.1,60.1v83h-43.5V224
				c0-18-6.3-30.3-22-30.3c-12,0-19.2,8.3-22,16.3c-1.1,2.6-1.7,6.9-1.7,10.9v80.7h-43.5V206.3z"/>
			<path style="clip-path:url(#SVGID_00000071546321227683694220000005280145839332516256_);fill:#FFFFFF;" d="M1099.2,161.6
				c-0.6,8.9-1.1,20.6-1.1,41.5v78.1c0,26.9-5.4,48.9-21.2,62.9c-15.5,13.2-36.3,17.2-56.9,17.2c-18.3,0-37.8-3.7-50.4-10.9
				l8.6-32.9c8.9,5.2,24.3,10.6,40.6,10.6c20.6,0,36.3-11.2,36.3-36.9v-9.2h-0.6c-8.3,11.7-21.7,18.3-37.8,18.3
				c-34.6,0-59.2-28-59.2-68.4c0-44.9,29.2-73.5,63.5-73.5c19.2,0,31.2,8.3,38.3,19.7h0.6l1.4-16.6H1099.2z M1054.6,218.6
				c0-2.9-0.3-5.7-0.9-8c-3.1-11.4-11.4-19.2-23.5-19.2c-15.7,0-28.6,14.3-28.6,39.8c0,20.9,10.3,37.2,28.6,37.2
				c11.2,0,20-7.4,22.9-17.7c1.1-3.1,1.4-7.7,1.4-11.4V218.6z"/>
			<path style="clip-path:url(#SVGID_00000071546321227683694220000005280145839332516256_);fill:#FFFFFF;" d="M1133,207.7
				c0-20.6-0.6-34-1.1-46.1h37.5l1.4,25.8h1.1c7.2-20.3,24.3-28.9,37.8-28.9c4,0,6,0,9.2,0.6V200c-3.1-0.6-6.9-1.1-11.7-1.1
				c-16,0-26.9,8.6-29.8,22c-0.6,2.9-0.9,6.3-0.9,9.7v71H1133V207.7z"/>
			<path style="clip-path:url(#SVGID_00000071546321227683694220000005280145839332516256_);fill:#FFFFFF;" d="M1272.9,245.5
				c1.4,18,19.2,26.6,39.5,26.6c14.9,0,26.9-2,38.6-5.7l5.7,29.5c-14.3,5.7-31.8,8.6-50.6,8.6c-47.5,0-74.7-27.5-74.7-71.2
				c0-35.5,22-74.7,70.7-74.7c45.2,0,62.4,35.2,62.4,69.8c0,7.4-0.9,14-1.4,17.2H1272.9z M1324.1,215.7c0-10.6-4.6-28.3-24.6-28.3
				c-18.3,0-25.8,16.6-26.9,28.3H1324.1z"/>
			<path style="clip-path:url(#SVGID_00000071546321227683694220000005280145839332516256_);fill:#FFFFFF;" d="M1361.6,327.3
				c11.5-0.9,20.3-3.4,25.8-9.2c6.3-6.6,8.6-17.7,8.6-45.5v-111h43.8v121.3c0,30.6-6.9,49.2-19.7,61.2c-12.9,12-33.2,17.2-54.1,17.2
				L1361.6,327.3z M1440.9,122.7c0,12-8.9,21.7-23.5,21.7c-13.7,0-22.6-9.7-22.6-21.7c0-12.6,8.9-22,23.2-22
				C1432,100.7,1440.6,110.1,1440.9,122.7"/>
			<path style="clip-path:url(#SVGID_00000071546321227683694220000005280145839332516256_);fill:#FFFFFF;" d="M1612,230
				c0,51.2-36.3,74.7-73.8,74.7c-40.9,0-72.4-26.9-72.4-72.1c0-45.2,29.8-74.1,74.7-74.1C1583.4,158.5,1612,187.9,1612,230
				 M1510.7,231.4c0,24,10,42.1,28.6,42.1c16.9,0,27.8-16.9,27.8-42.1c0-20.9-8-42.1-27.8-42.1
				C1518.4,189.4,1510.7,210.8,1510.7,231.4"/>
			<path style="clip-path:url(#SVGID_00000071546321227683694220000005280145839332516256_);fill:#FFFFFF;" d="M1670.4,124.1
				c0.3,8.6-6,15.5-16,15.5c-8.9,0-15.2-6.9-15.2-15.5c0-8.9,6.6-15.7,15.7-15.7C1664.3,108.4,1670.4,115.3,1670.4,124.1
				 M1642.3,163.1h25.2v138.5h-25.2V163.1z"/>
			<path style="clip-path:url(#SVGID_00000071546321227683694220000005280145839332516256_);fill:#FFFFFF;" d="M1828.9,98.4v167.4
				c0,12.3,0.3,26.3,1.1,35.8h-22.6l-1.1-24h-0.6c-7.7,15.5-24.6,27.2-47.2,27.2c-33.5,0-59.2-28.3-59.2-70.4
				c-0.3-46.1,28.3-74.4,62.1-74.4c21.2,0,35.5,10,41.8,21.2h0.6V98.4H1828.9z M1803.7,219.4c0-3.1-0.3-7.4-1.1-10.6
				c-3.7-16-17.5-29.2-36.3-29.2c-26,0-41.5,22.9-41.5,53.5c0,28,13.7,51.2,40.9,51.2c16.9,0,32.3-11.2,36.9-30
				c0.9-3.4,1.1-6.9,1.1-10.9V219.4z"/>
			<path style="clip-path:url(#SVGID_00000071546321227683694220000005280145839332516256_);fill:#FFFFFF;" d="M1884.7,236.9
				c0.6,34,22.3,48.1,47.5,48.1c18,0,28.9-3.1,38.3-7.2l4.3,18c-8.9,4-24,8.6-46.1,8.6c-42.6,0-68.1-28-68.1-69.8s24.6-74.7,65-74.7
				c45.2,0,57.2,39.8,57.2,65.2c0,5.2-0.6,9.2-0.9,11.7H1884.7z M1958.5,218.9c0.3-16-6.6-40.9-34.9-40.9
				c-25.5,0-36.6,23.5-38.6,40.9H1958.5z"/>
			<path style="clip-path:url(#SVGID_00000071546321227683694220000005280145839332516256_);fill:#FFFFFF;" d="M2090.7,301.5
				l-2-17.5h-0.9c-7.7,10.9-22.6,20.6-42.4,20.6c-28,0-42.3-19.7-42.3-39.8c0-33.5,29.8-51.8,83.3-51.5v-2.9c0-11.4-3.1-32-31.5-32
				c-12.9,0-26.3,4-36.1,10.3l-5.7-16.6c11.4-7.4,28-12.3,45.5-12.3c42.4,0,52.7,28.9,52.7,56.7v51.8c0,12,0.6,23.7,2.3,33.2H2090.7
				z M2087,230.9c-27.5-0.6-58.7,4.3-58.7,31.2c0,16.3,10.9,24,23.7,24c18,0,29.5-11.4,33.5-23.2c0.9-2.6,1.4-5.4,1.4-8V230.9z"/>
			<path style="clip-path:url(#SVGID_00000071546321227683694220000005280145839332516256_);fill:#FFFFFF;" d="M2148.5,275.8
				c7.4,4.9,20.6,10,33.2,10c18.3,0,26.9-9.2,26.9-20.6c0-12-7.2-18.6-25.8-25.5c-24.9-8.9-36.6-22.6-36.6-39.2
				c0-22.3,18-40.6,47.8-40.6c14,0,26.3,4,34,8.6l-6.3,18.3c-5.4-3.4-15.5-8-28.3-8c-14.9,0-23.2,8.6-23.2,18.9
				c0,11.4,8.3,16.6,26.3,23.5c24,9.2,36.3,21.2,36.3,41.8c0,24.3-18.9,41.5-51.8,41.5c-15.2,0-29.2-3.7-38.9-9.4L2148.5,275.8z"/>
			<path style="clip-path:url(#SVGID_00000071546321227683694220000005280145839332516256_);fill:#FEFEFE;" d="M299.3,304.6
				c-1.3-1.2-2.8-1.8-4.4-1.8h0h0c-2.7,0-5.1,1.9-6.5,4.7c-0.9,1.7-1.4,3.8-1.4,6c0,3.8,1.5,7.1,3.6,9c1.2,1.1,2.7,1.7,4.2,1.7h0h0
				c2,0,3.8-1,5.1-2.6c0.4-0.5,0.8-1.1,1.2-1.7c1-1.8,1.5-3.9,1.5-6.3c0,0,0-0.1,0-0.1C302.8,309.7,301.4,306.5,299.3,304.6"/>
			<path style="clip-path:url(#SVGID_00000071546321227683694220000005280145839332516256_);fill:#FEFEFE;" d="M237.2,246.9
				c0.7-1.8,1.7-3.4,2.9-5c0.4-0.5,0.8-0.9,1.2-1.4c-0.5-0.2-0.9-0.7-1.2-1.3c-0.7-2-0.1-1.9-1.2,0.4c-0.3,0.7-0.7,1.4-1,2
				c-0.4,0.9-0.7,1.8-1.2,2.7c-0.9,1.8-3.6,1.2-4.1-0.5c-0.2-0.6-0.4-1.2-0.5-1.8c-0.2,0.5-0.4,1-0.7,1.4c-0.8,1.3-3.1,1.6-3.9,0
				c-0.3-0.7-0.6-1.3-0.9-1.9c-0.4,1.3-0.9,2.5-1.8,3.3c-0.8,0.8-1.7,0.8-2.7,0.4c-2-0.8-2.6-3.1-3.5-5c-0.3,1.1-0.5,2.3-0.7,2.8
				c-0.5,1.5-2.6,2.3-3.8,1c-0.8-0.8-1.3-1.7-1.7-2.6c-0.4,0.8-0.8,1.6-1.4,2.4c-1.2,1.6-3.5,1.4-4.1-0.5c-0.4-1.1-0.7-2.2-1.1-3.3
				c-0.8-2.9-1.2-2.9-1.1,0c-0.1,0.4-0.3,0.7-0.6,1c0.3,0.4,0.7,0.8,1,1.2c1.2,1.5,2.1,3.2,2.9,5c0.7,1.8,1.4,3.6,2,5.4
				c0.7,1.8,1.3,3.5,1.9,5.3c0.6,1.8,1.1,3.6,1.5,5.4c0.4,1.6,0.7,3.1,1,4.7c2.1,0,4.2,0.1,6.3,0.1c0.6,0,1.1,0,1.7,0
				c0.6,0,1.1,0,1.7,0c2.2,0,4.4,0,6.6-0.1c0.3-1.6,0.6-3.1,1-4.7c0.5-1.8,1-3.6,1.6-5.4c0.6-1.8,1.2-3.6,1.9-5.3
				C235.9,250.5,236.5,248.7,237.2,246.9"/>
			<path style="clip-path:url(#SVGID_00000071546321227683694220000005280145839332516256_);fill:#FEFEFE;" d="M222.5,202.3
				c-35,0-66.9,22.9-86.2,61.6c11.2,1,35.6,2.9,66.1,3.6c1.6,0,3.3,0.1,5,0.1c1.3,0,2.6,0,3.9,0c-2.2-4.6-8.1-17.3-8.5-17.9
				c-1-1.5-1.9-3-2.7-4.6c-1.6-3.2-3.1-6.4-4.4-10.2l0.4-0.4c1.8,0.7,3.3,1.7,4.6,2.8c0.9-2.6,2.4-5.9,5.5-4.7
				c1.5,0.6,2.5,2.1,3.2,3.9c0.3-0.7,0.5-1.3,0.8-2c0.6-1.6,3.2-2.5,4.1-0.5c0.3,0.6,0.5,1.4,0.8,2.1c0.3-0.7,0.7-1.4,1.2-1.9
				c0.7-0.7,1.9-0.9,2.7-0.3c1.8,1.1,2.3,3.7,3.4,5.5c0.4-1.5,0.6-3.4,0.9-4.2c0.5-1.4,2.6-2.4,3.8-1c0.7,0.9,1.3,1.8,1.9,2.8
				c0.3-0.8,0.7-1.5,1.2-2.1c0.5-0.6,1.5-0.8,2.2-0.6c1.3,0.5,2.1,1.4,2.6,2.6c0.7-1.3,1.6-2.5,2.9-3.3c3.2-1.9,5.2,1.5,6.1,4.1
				c1.5-1.2,3-2.3,4.9-3l0.4,0.4c-1.3,3.7-2.8,7-4.4,10.2c-0.8,1.6-2.6,4.9-3.6,6.4c-0.4,0.6-6.4,13.5-7.7,16.1c1.2,0,2.4,0,3.7,0
				c1.7,0,3.3-0.1,5-0.1c30.6-0.7,55.1-2.6,66.2-3.6C289.4,225.2,257.5,202.3,222.5,202.3"/>
			<path style="clip-path:url(#SVGID_00000071546321227683694220000005280145839332516256_);fill:#FEFEFE;" d="M73.8,257.7
				c-0.1,0-0.1,0.1-0.2,0.1c-0.2,0.1-0.3,0.3-0.5,0.4c-0.3-0.3-0.6-0.7-0.9-1c-0.3-0.3-0.6-0.6-0.9-0.9c-0.8-0.8-1.6-1.5-2.5-2.2
				c0.4,0.8,0.8,1.5,1.3,2.2c0.6,1,1.3,1.9,2,2.8c-1.4,1.4-2.9,2.7-4,4.4c1.7-0.9,3.2-2.1,4.7-3.3c0.1,0,0.1-0.1,0.2-0.2
				c0.3,0.3,0.6,0.7,0.9,1c1,1.1,2.1,2.2,3.4,3.1c-0.4-0.9-0.9-1.7-1.4-2.4c-0.6-0.9-1.2-1.7-1.9-2.5c0.3-0.3,0.6-0.6,0.9-0.9
				c0.9-0.9,1.8-1.8,2.6-2.9c0.2-0.2,0.4-0.5,0.5-0.7c-0.3,0.2-0.6,0.4-1,0.6C75.9,256,74.8,256.8,73.8,257.7"/>
			<path style="clip-path:url(#SVGID_00000071546321227683694220000005280145839332516256_);fill:#FEFEFE;" d="M150,302.8L150,302.8
				L150,302.8c-1.6,0-3,0.6-4.2,1.7c-2.1,1.8-3.5,5-3.6,8.7c0,0.1,0,0.2,0,0.3c0,2.3,0.5,4.3,1.4,6.1c0.5,1,1.1,1.9,1.9,2.6
				c1.3,1.3,2.9,2,4.6,2h0h0c1.6,0,3.2-0.7,4.4-1.8c2.1-1.9,3.5-5.2,3.5-8.8c0-2.3-0.6-4.5-1.5-6.2
				C154.9,304.5,152.6,302.8,150,302.8"/>
			<path style="clip-path:url(#SVGID_00000071546321227683694220000005280145839332516256_);fill:#FEFEFE;" d="M367.4,0H78.2
				C35.6,0,1.1,34.5,1.1,77.1v289.2c0,42.6,34.5,77.1,77.1,77.1h289.2c42.6,0,77.1-34.5,77.1-77.1V77.1C444.6,34.5,410,0,367.4,0
				 M379.4,39.5h15.3v15.3h-15.3V39.5z M50.2,39.5h15.3v15.3H50.2V39.5z M58.3,288.4l23.2,6.7L77,309.7l-14.1-3.8l-30.2,41.4
				L58.3,288.4z M65,404H49.7v-15.3H65V404z M358.2,313.5l-20.9,6.5c0.1,1.4,0.1,2.7,0.1,3.9l-6.5,0.4c0,0.9,0.1,1.7,0.1,2.6
				c0,0.2,0,0.4-0.1,0.5c-0.5,1.3-2.5,3-5.2,3.8h0c0,0-31.4,12.2-103.2,12.2c-71.9,0-103.2-12.2-103.2-12.2h0
				c-2.7-0.9-4.8-2.5-5.2-3.8c0-0.2-0.1-0.4-0.1-0.5c0-0.9,0.1-1.8,0.1-2.7l-5.7-0.4c0-1.2,0-2.5,0.1-3.9l-20.9-6.5l-17.8,28.4
				l9.9-30.8l0,0l1.9-6l0,0l2.9-9l1.1-3.3l1.2-3.7l25,6.5c0.4-1.5,0.7-2.8,1.1-4h5.8c0.8-2.8,1.6-5.6,2.5-8.4l0.1-0.3l-43.4-15.1
				c-1.6,0.8-3.5,1.2-5.5,1.1c-5.7-0.4-9.9-5.2-9.5-10.6c0.3-4.1,3.2-7.4,7-8.6L91,203.8c-1.8-2.6-2.4-5.7-1.5-8.3
				c-17.3-13.7-21.9-40.6-9.7-64.4c13.8-26.8,39.8-40.4,58.4-33c1.8,0.7,4.3,2.2,5.8,3.2l-29.7,71.6l35.5-40.1
				c11.1,15.7,8.9,40-5.7,56.6c-9.4,10.6-21.8,15.7-33.3,14.8c-0.2,0.5-0.4,1.1-0.7,1.6c-1.7,3-5.2,4.4-9,4l-20,43.1
				c1.1,1.3,1.8,2.9,2,4.6l42,14.8l0.2-0.4c1-2.2,2-4.3,3-6.4c0.4-0.8,0.8-1.5,1.2-2.3c0,0,0,0,0.1,0c0,0,0.1,0,0.2,0
				c20.2-42,54.6-67,92.6-67s72.3,25,92.6,67l0,0c0.1,0,0.1,0,0.1,0c0.4,0.8,0.8,1.5,1.2,2.3c1.1,2.1,2.1,4.2,3,6.4l0.3,0.6l42.7-15
				c0.3-1.7,1-3.2,2-4.6l-20-43.1c-3.8,0.4-7.3-1-9-4c-0.3-0.5-0.5-1-0.7-1.6c-11.5,0.8-23.9-4.2-33.3-14.8
				c-14.7-16.6-16.9-40.9-5.7-56.6l35.5,40.1l-29.7-71.6c1.6-1,4.1-2.5,5.9-3.2c18.6-7.4,44.6,6.2,58.4,33
				c12.2,23.7,7.6,50.6-9.7,64.3c0.9,2.6,0.3,5.7-1.5,8.3l19.4,41.8l1.9,4h0l0,0c0,0,0,0,0.1,0c0,0,0,0,0,0l0,0
				c3.7,1.3,6.5,4.6,6.8,8.6c0.4,5.5-3.8,10.2-9.5,10.6c-2,0.1-3.9-0.3-5.5-1.1l-44.1,15.4l0,0.1c0.9,2.7,1.8,5.5,2.5,8.4h6.6
				c0.4,1.1,0.7,2.5,1.1,4l25-6.5l7.3,22.6l9.7,30.3L358.2,313.5z M394.7,404h-15.3v-15.3h15.3V404z M382.7,305.9l-14,4.3l-2.1-5.9
				l-3.1-8.9l23.7-7l25.6,58.9L382.7,305.9z"/>
			<path style="clip-path:url(#SVGID_00000071546321227683694220000005280145839332516256_);fill:#FEFEFE;" d="M370.8,258.4
				c0.3,0.3,0.6,0.6,0.9,0.9c-1.2,1.6-2.4,3.1-3.3,5c1.6-1.2,3-2.6,4.3-4.1c0.1,0,0.1,0.1,0.2,0.1c1.5,1.2,2.9,2.4,4.7,3.3
				c-1.1-1.7-2.6-3.1-4-4.4l2-2.8c0.5-0.7,0.9-1.4,1.3-2.2c-0.9,0.7-1.7,1.4-2.5,2.2c-0.3,0.3-0.5,0.6-0.8,0.8
				c-0.3,0.3-0.6,0.7-0.9,1c-0.2-0.1-0.3-0.3-0.5-0.4c0-0.1-0.1-0.1-0.2-0.1c-1.1-0.9-2.1-1.6-3.3-2.3c-0.3-0.2-0.6-0.4-0.9-0.6
				c0.2,0.3,0.4,0.5,0.6,0.7C369,256.5,369.9,257.5,370.8,258.4"/>
		</g>
	</g>
</g>
</svg>
