<?xml version="1.0" encoding="utf-8"?>
<!-- Generator: Adobe Illustrator 27.7.0, SVG Export Plug-In . SVG Version: 6.00 Build 0)  -->
<svg version="1.1" id="Capa_1" xmlns="http://www.w3.org/2000/svg" xmlns:xlink="http://www.w3.org/1999/xlink" x="0px" y="0px"
	 viewBox="0 0 2224.1 446" style="enable-background:new 0 0 2224.1 446;" xml:space="preserve">
<style type="text/css">
	.st0{clip-path:url(#SVGID_00000096779327590641983540000013681674401185294756_);}
	.st1{clip-path:url(#SVGID_00000103976594594028843790000008020320814116501396_);fill:#EE8100;}
	.st2{clip-path:url(#SVGID_00000153687423486912915230000002885721740125694601_);fill:#FFFFFF;}
	.st3{clip-path:url(#SVGID_00000052089145812400970040000002546651879661522319_);fill:#FFFFFF;}
	.st4{clip-path:url(#SVGID_00000121249992921186517230000009130101039320532864_);fill:#FFFFFF;}
	.st5{clip-path:url(#SVGID_00000044159996097464057550000007812826943925110692_);fill:#FFFFFF;}
	.st6{clip-path:url(#SVGID_00000129196379538324171170000002197191603228338350_);fill:#FFFFFF;}
	.st7{clip-path:url(#SVGID_00000039841626957089429360000008008032841998601351_);fill:#FFFFFF;}
	.st8{clip-path:url(#SVGID_00000125563363074883059640000013347876312430633623_);fill:#FFFFFF;}
	.st9{clip-path:url(#SVGID_00000068673678385864487970000011946309115956356744_);fill:#FFFFFF;}
	.st10{clip-path:url(#SVGID_00000064350417867112661380000008257159441158068630_);fill:#FFFFFF;}
	.st11{clip-path:url(#SVGID_00000033370924881930328460000007652073478258238131_);fill:#FFFFFF;}
	.st12{clip-path:url(#SVGID_00000153672824848280349740000014348242707375438769_);fill:#FFFFFF;}
	.st13{clip-path:url(#SVGID_00000044145128149074218790000009499653355134335128_);fill:#FFFFFF;}
	.st14{clip-path:url(#SVGID_00000151545334775128075170000006884984474419123372_);fill:#FFFFFF;}
	.st15{clip-path:url(#SVGID_00000181084296506109683100000016980928447936898977_);fill:#FFFFFF;}
	.st16{clip-path:url(#SVGID_00000073681138752108239830000008783787480296122047_);fill:#FFFFFF;}
	.st17{clip-path:url(#SVGID_00000126301237729392112770000006311998831900253092_);fill:#FFFFFF;}
	.st18{clip-path:url(#SVGID_00000053536681499641324680000016363042222296519824_);fill:#FFFFFF;}
	.st19{clip-path:url(#SVGID_00000133529109736176001580000008499804897043024514_);fill:#FFFFFF;}
	.st20{clip-path:url(#SVGID_00000062874948561293828880000001720054039589801388_);fill:#FFFFFF;}
	.st21{clip-path:url(#SVGID_00000075123462968985037750000007272983433118722740_);fill:#FFFFFF;}
</style>
<g>
	<g>
		<defs>
			<rect id="SVGID_1_" x="2.9" y="4.5" width="2221.3" height="441.4"/>
		</defs>
		<clipPath id="SVGID_00000124857144258598645120000014353017278173637256_">
			<use xlink:href="#SVGID_1_"  style="overflow:visible;"/>
		</clipPath>
		<g style="clip-path:url(#SVGID_00000124857144258598645120000014353017278173637256_);">
			<g>
				<defs>
					<rect id="SVGID_00000054238355514586483610000017626432039638237078_" x="2.9" y="4.5" width="2221.3" height="441.4"/>
				</defs>
				<clipPath id="SVGID_00000068640853648879372760000003730461590669967806_">
					<use xlink:href="#SVGID_00000054238355514586483610000017626432039638237078_"  style="overflow:visible;"/>
				</clipPath>
				<path style="clip-path:url(#SVGID_00000068640853648879372760000003730461590669967806_);fill:#EE8100;" d="M444.2,369.2
					c0,42.4-34.4,76.8-76.8,76.8H79.7c-42.4,0-76.8-34.4-76.8-76.8V81.3C2.8,39,37.2,4.5,79.7,4.5h287.9c42.4,0,76.8,34.4,76.8,76.8
					v287.8H444.2z"/>
			</g>
			<g>
				<defs>
					<rect id="SVGID_00000073693898685308219200000012217013127139637163_" x="2.9" y="4.5" width="2221.3" height="441.4"/>
				</defs>
				<clipPath id="SVGID_00000053530285050009693400000011367033509427779005_">
					<use xlink:href="#SVGID_00000073693898685308219200000012217013127139637163_"  style="overflow:visible;"/>
				</clipPath>
				<polygon style="clip-path:url(#SVGID_00000053530285050009693400000011367033509427779005_);fill:#FFFFFF;" points="83,298.2 
					59.8,291.6 34.2,350.2 64.3,309.1 78.5,312.9 				"/>
			</g>
			<g>
				<defs>
					<rect id="SVGID_00000019641406349768865640000000281815875554219189_" x="2.9" y="4.5" width="2221.3" height="441.4"/>
				</defs>
				<clipPath id="SVGID_00000182497662280800076530000012470363074777938333_">
					<use xlink:href="#SVGID_00000019641406349768865640000000281815875554219189_"  style="overflow:visible;"/>
				</clipPath>
				<polygon style="clip-path:url(#SVGID_00000182497662280800076530000012470363074777938333_);fill:#FFFFFF;" points="
					387.2,291.6 363.6,298.6 366.8,307.6 368.9,313.4 382.6,309.1 412.8,350.2 				"/>
			</g>
			<g>
				<defs>
					<rect id="SVGID_00000127026519350635359370000010390927569556985769_" x="2.9" y="4.5" width="2221.3" height="441.4"/>
				</defs>
				<clipPath id="SVGID_00000033335007841135065480000004554808491544195247_">
					<use xlink:href="#SVGID_00000127026519350635359370000010390927569556985769_"  style="overflow:visible;"/>
				</clipPath>
				<path style="clip-path:url(#SVGID_00000033335007841135065480000004554808491544195247_);fill:#FFFFFF;" d="M359,292.4
					l-24.9,6.5c-0.3-1.5-0.7-2.8-1.1-3.9h-6.5c-0.8-2.8-1.6-5.6-2.5-8.3v-0.1l43.9-15.3c1.6,0.8,3.5,1.2,5.5,1.1
					c5.7-0.4,9.9-5.2,9.4-10.6c-0.3-4-3.1-7.3-6.8-8.5l0,0l0,0h-0.1l0,0l0,0l-1.9-3.9l-19.4-41.9c1.8-2.6,2.4-5.7,1.5-8.3
					c17.2-13.7,21.8-40.4,9.7-64c-13.7-26.7-39.6-40.3-58.1-32.9c-1.8,0.7-4.3,2.1-5.8,3.2l29.5,71.2l-35.3-39.9
					c-11.1,15.6-8.9,39.8,5.7,56.4c9.3,10.5,21.7,15.6,33.2,14.8c0.2,0.6,0.4,1.1,0.6,1.6c1.7,3,5.1,4.4,8.9,4l19.9,42.9
					c-1,1.3-1.8,2.8-2,4.5L320,276l-0.2-0.6c-0.9-2.1-1.9-4.3-3-6.4c-0.4-0.8-0.8-1.5-1.2-2.2c0,0,0,0-0.1,0l0,0
					c-20.2-41.8-54.4-66.7-92.1-66.7s-72,24.9-92.1,66.7c0,0-0.1,0-0.2,0c-0.1,0-0.1,0-0.1,0c-0.4,0.8-0.8,1.5-1.2,2.2
					c-1.1,2.1-2.1,4.2-3,6.4l-0.2,0.4L84.7,261c-0.3-1.7-1-3.3-2-4.6l19.9-42.9c3.8,0.4,7.3-1,8.9-4c0.3-0.5,0.5-1,0.6-1.6
					c11.5,0.8,23.8-4.2,33.2-14.8c14.6-16.5,16.8-40.7,5.7-56.4l-35.4,39.9l29.5-71.2c-1.5-1-4-2.5-5.8-3.2
					c-18.6-7.4-44.4,6.2-58.1,32.8c-12.1,23.6-7.5,50.4,9.7,64c-0.9,2.6-0.3,5.6,1.5,8.3l-21.1,45.6c-3.8,1.2-6.6,4.5-6.9,8.6
					c-0.4,5.4,3.8,10.2,9.4,10.6c2,0.1,3.9-0.3,5.5-1.1l43.2,15.1l-0.1,0.3c-0.9,2.7-1.8,5.5-2.5,8.3h-5.8c-0.4,1.1-0.7,2.5-1.1,3.9
					l-24.9-6.5l-1.2,3.7l-1.1,3.3l-2.9,8.9l0,0L81,314l0,0l-9.9,30.7l17.7-28.3l20.8,6.4c-0.1,1.4-0.1,2.7-0.1,3.9l5.7,0.4
					c0,0.9-0.1,1.8-0.1,2.7c0,0.2,0,0.4,0.1,0.5c0.5,1.3,2.5,2.9,5.2,3.8l0,0c0,0,31.2,12.1,102.7,12.2
					c71.5,0,102.7-12.2,102.7-12.2l0,0c2.7-0.9,4.7-2.5,5.2-3.8c0.1-0.2,0.1-0.4,0.1-0.5c0-0.9-0.1-1.7-0.1-2.6l6.4-0.4
					c0-1.2,0-2.5-0.1-3.9l20.8-6.4l17.7,28.3l-9.7-30.1L359,292.4z M78.8,258.9c-0.8,1-1.7,2-2.6,2.9c-0.3,0.3-0.6,0.6-0.9,0.9
					c0.6,0.8,1.3,1.7,1.9,2.5c0.5,0.8,1,1.6,1.4,2.4c-1.3-0.9-2.3-2-3.4-3.1c-0.3-0.3-0.6-0.7-0.9-1c-0.1,0.1-0.1,0.1-0.2,0.2
					c-1.5,1.2-2.9,2.4-4.7,3.3c1.1-1.7,2.6-3.1,4-4.4c-0.7-0.9-1.4-1.8-2-2.8c-0.5-0.7-0.9-1.4-1.3-2.2c0.9,0.7,1.7,1.4,2.5,2.2
					c0.3,0.3,0.6,0.6,0.9,0.9c0.3,0.3,0.6,0.6,0.9,1c0.2-0.1,0.3-0.3,0.5-0.4c0.1,0,0.1-0.1,0.2-0.1c1-0.8,2.1-1.6,3.3-2.3
					c0.3-0.2,0.6-0.4,1-0.6C79.2,258.5,79.1,258.6,78.8,258.9 M155.5,325.4c-1.3,1.1-2.8,1.8-4.4,1.8l0,0l0,0c-1.7,0-3.3-0.8-4.6-2
					c-0.7-0.7-1.3-1.6-1.9-2.6c-0.9-1.7-1.4-3.8-1.4-6c0-0.1,0-0.2,0-0.3c0.1-3.6,1.5-6.8,3.6-8.6c1.2-1.1,2.7-1.7,4.2-1.7l0,0l0,0
					c2.6,0,4.9,1.7,6.4,4.4c0.9,1.7,1.5,3.9,1.5,6.2C158.9,320.1,157.5,323.4,155.5,325.4 M232.5,266.4c-0.4,1.5-0.7,3.1-1,4.6
					c-2.2,0-4.4,0.1-6.6,0.1c-0.6,0-1.1,0-1.7,0s-1.1,0-1.7,0c-2.1,0-4.2,0-6.2-0.1c-0.3-1.5-0.6-3.1-1-4.6c-0.5-1.8-1-3.6-1.5-5.4
					c-0.6-1.8-1.2-3.5-1.9-5.3c-0.7-1.8-1.3-3.6-2-5.3c-0.7-1.8-1.7-3.4-2.9-4.9c-0.3-0.4-0.7-0.8-1-1.2c0.3-0.2,0.5-0.5,0.6-0.9
					c-0.1-2.9,0.3-2.9,1.1,0c0.4,1.1,0.8,2.2,1.1,3.3c0.6,1.9,2.9,2.1,4.1,0.5c0.6-0.8,1-1.6,1.4-2.4c0.4,0.9,1,1.8,1.7,2.6
					c1.2,1.3,3.2,0.5,3.7-1c0.2-0.5,0.4-1.6,0.7-2.8c0.9,1.9,1.5,4.2,3.4,5c1,0.4,1.9,0.4,2.7-0.3c0.9-0.8,1.4-2,1.8-3.2
					c0.3,0.6,0.6,1.3,0.9,1.9c0.8,1.6,3,1.3,3.9,0c0.3-0.4,0.5-0.9,0.7-1.4c0.2,0.6,0.3,1.2,0.5,1.8c0.5,1.7,3.2,2.4,4.1,0.5
					c0.4-0.9,0.8-1.8,1.2-2.7c0.3-0.7,0.6-1.4,1-2c1.1-2.3,0.6-2.4,1.2-0.4c0.2,0.6,0.7,1.1,1.2,1.3c-0.4,0.4-0.8,0.9-1.2,1.4
					c-1.2,1.5-2.1,3.2-2.9,4.9c-0.7,1.8-1.4,3.6-2,5.3c-0.7,1.8-1.3,3.5-1.9,5.3C233.5,262.8,233,264.6,232.5,266.4 M301.5,322.8
					c-0.3,0.6-0.7,1.2-1.2,1.7c-1.4,1.6-3.1,2.6-5.1,2.6l0,0l0,0c-1.6,0-3-0.6-4.2-1.7c-2.2-1.9-3.6-5.2-3.6-8.9
					c0-2.2,0.5-4.3,1.3-6c1.4-2.8,3.8-4.7,6.5-4.7l0,0l0,0c1.6,0,3.1,0.7,4.4,1.8c2.1,1.9,3.4,5.1,3.4,8.7v0.1
					C303.1,318.9,302.5,321.1,301.5,322.8 M243.1,270.9c-1.6,0-3.3,0.1-5,0.1c-1.2,0-2.4,0-3.7,0c1.3-2.6,7.3-15.4,7.7-16
					c1-1.5,2.8-4.7,3.6-6.3c1.6-3.2,3.1-6.4,4.3-10.1l-0.4-0.4c-1.9,0.7-3.4,1.8-4.8,3c-1-2.5-2.9-5.9-6.1-4c-1.3,0.8-2.2,2-2.9,3.3
					c-0.6-1.1-1.4-2.1-2.6-2.6c-0.7-0.2-1.7,0-2.2,0.6c-0.6,0.6-0.9,1.3-1.2,2.1c-0.6-0.9-1.2-1.9-1.9-2.7c-1.1-1.5-3.2-0.4-3.7,1
					c-0.3,0.8-0.6,2.7-0.9,4.2c-1.1-1.8-1.7-4.4-3.4-5.5c-0.8-0.5-2-0.3-2.7,0.3c-0.5,0.5-0.9,1.2-1.2,1.9c-0.3-0.8-0.5-1.5-0.8-2.1
					c-0.9-2-3.5-1-4.1,0.5c-0.3,0.7-0.5,1.3-0.8,2c-0.7-1.7-1.7-3.3-3.2-3.8c-3.2-1.2-4.6,2.1-5.5,4.7c-1.4-1.1-2.9-2.1-4.6-2.8
					l-0.4,0.4c1.3,3.7,2.8,6.9,4.4,10.1c0.8,1.6,1.7,3.1,2.7,4.6c0.4,0.5,6.3,13.2,8.5,17.8c-1.3,0-2.6,0-3.9,0
					c-1.7,0-3.3-0.1-5-0.1c-30.4-0.7-54.7-2.6-65.8-3.5c19.2-38.5,51-61.3,85.8-61.3s66.5,22.8,85.8,61.3
					C297.9,268.2,273.5,270.1,243.1,270.9 M368.5,258.8c1.2,0.7,2.3,1.5,3.3,2.3c0,0,0.1,0.1,0.2,0.1c0.2,0.1,0.3,0.3,0.5,0.4
					c0.3-0.3,0.6-0.7,0.9-1c0.3-0.3,0.5-0.6,0.8-0.8c0.8-0.8,1.6-1.6,2.5-2.2c-0.4,0.8-0.8,1.5-1.3,2.2l-2,2.8
					c1.4,1.4,2.9,2.7,4,4.4c-1.7-0.9-3.2-2.1-4.7-3.3c-0.1,0-0.1-0.1-0.2-0.1c-1.3,1.5-2.6,2.9-4.3,4.1c0.9-1.8,2.1-3.4,3.3-4.9
					c-0.3-0.3-0.6-0.6-0.9-0.9c-0.9-0.9-1.8-1.8-2.6-2.9c-0.2-0.2-0.4-0.4-0.6-0.7C367.9,258.4,368.2,258.6,368.5,258.8"/>
			</g>
			<g>
				<defs>
					<rect id="SVGID_00000016785983235239445850000000568256677858476183_" x="2.9" y="4.5" width="2221.3" height="441.4"/>
				</defs>
				<clipPath id="SVGID_00000092429937665815217620000000925796610967408769_">
					<use xlink:href="#SVGID_00000016785983235239445850000000568256677858476183_"  style="overflow:visible;"/>
				</clipPath>
				
					<rect x="51.8" y="44" style="clip-path:url(#SVGID_00000092429937665815217620000000925796610967408769_);fill:#FFFFFF;" width="15.2" height="15.2"/>
			</g>
			<g>
				<defs>
					<rect id="SVGID_00000142165068787106908340000005921316909358066592_" x="2.9" y="4.5" width="2221.3" height="441.4"/>
				</defs>
				<clipPath id="SVGID_00000130642870647416081720000016251606275071920820_">
					<use xlink:href="#SVGID_00000142165068787106908340000005921316909358066592_"  style="overflow:visible;"/>
				</clipPath>
				
					<rect x="379.4" y="44" style="clip-path:url(#SVGID_00000130642870647416081720000016251606275071920820_);fill:#FFFFFF;" width="15.2" height="15.2"/>
			</g>
			<g>
				<defs>
					<rect id="SVGID_00000015343084884377184970000014941709924306318492_" x="2.9" y="4.5" width="2221.3" height="441.4"/>
				</defs>
				<clipPath id="SVGID_00000080928692943577325460000010351933746223641271_">
					<use xlink:href="#SVGID_00000015343084884377184970000014941709924306318492_"  style="overflow:visible;"/>
				</clipPath>
				
					<rect x="51.2" y="391.5" style="clip-path:url(#SVGID_00000080928692943577325460000010351933746223641271_);fill:#FFFFFF;" width="15.2" height="15.2"/>
			</g>
			<g>
				<defs>
					<rect id="SVGID_00000142868612225877723030000004277894497827200181_" x="2.9" y="4.5" width="2221.3" height="441.4"/>
				</defs>
				<clipPath id="SVGID_00000007406274548507399440000010056086195426376837_">
					<use xlink:href="#SVGID_00000142868612225877723030000004277894497827200181_"  style="overflow:visible;"/>
				</clipPath>
				
					<rect x="379.4" y="391.5" style="clip-path:url(#SVGID_00000007406274548507399440000010056086195426376837_);fill:#FFFFFF;" width="15.2" height="15.2"/>
			</g>
			<g>
				<defs>
					<rect id="SVGID_00000012448335474792263840000009919830559405658023_" x="2.9" y="4.5" width="2221.3" height="441.4"/>
				</defs>
				<clipPath id="SVGID_00000079482196490607954330000006158924732270232196_">
					<use xlink:href="#SVGID_00000012448335474792263840000009919830559405658023_"  style="overflow:visible;"/>
				</clipPath>
				<path style="clip-path:url(#SVGID_00000079482196490607954330000006158924732270232196_);fill:#FFFFFF;" d="M620.5,301.2
					c-7.7,3.4-22.2,6.3-38.7,6.3c-45,0-73.8-27.3-73.8-71.2c0-40.7,27.9-74,79.7-74c11.4,0,23.9,2,33,5.4l-6.8,32.2
					c-5.1-2.3-12.8-4.3-24.2-4.3c-22.8,0-37.6,16.2-37.3,39c0,25.6,17.1,39,38.2,39c10.3,0,18.2-1.7,24.8-4.3L620.5,301.2z"/>
			</g>
			<g>
				<defs>
					<rect id="SVGID_00000037666923986598662750000011707299625413015195_" x="2.9" y="4.5" width="2221.3" height="441.4"/>
				</defs>
				<clipPath id="SVGID_00000180363767031464773830000009434187550819606916_">
					<use xlink:href="#SVGID_00000037666923986598662750000011707299625413015195_"  style="overflow:visible;"/>
				</clipPath>
				<path style="clip-path:url(#SVGID_00000180363767031464773830000009434187550819606916_);fill:#FFFFFF;" d="M724.7,304.8
					l-2.6-14h-0.9c-9.1,11.1-23.3,17.1-39.9,17.1c-28.2,0-45-20.5-45-42.7c0-36.2,32.5-53.5,81.7-53.3v-2c0-7.4-4-17.9-25.3-17.9
					c-14.2,0-29.3,4.8-38.4,10.5l-8-27.9c9.7-5.4,28.8-12.2,54.1-12.2c46.4,0,61.2,27.3,61.2,60.1v48.4c0,13.4,0.6,26.2,2,33.9
					H724.7L724.7,304.8z M719.6,238.9c-22.8-0.3-40.4,5.1-40.4,21.9c0,11.1,7.4,16.5,17.1,16.5c10.8,0,19.6-7.1,22.5-15.9
					c0.6-2.3,0.9-4.8,0.9-7.4L719.6,238.9L719.6,238.9z"/>
			</g>
			<g>
				<defs>
					<rect id="SVGID_00000091725576647917539930000009929359974200908464_" x="2.9" y="4.5" width="2221.3" height="441.4"/>
				</defs>
				<clipPath id="SVGID_00000052813422952659139660000004503076548977174184_">
					<use xlink:href="#SVGID_00000091725576647917539930000009929359974200908464_"  style="overflow:visible;"/>
				</clipPath>
				<path style="clip-path:url(#SVGID_00000052813422952659139660000004503076548977174184_);fill:#FFFFFF;" d="M795.9,209.9
					c0-17.4-0.6-32.2-1.1-44.4h37.6l2,19.1h0.9c5.7-8.8,19.9-22.2,43-22.2c28.5,0,49.8,18.8,49.8,59.8v82.6h-43.3v-77.2
					c0-17.9-6.3-30.2-21.9-30.2c-12,0-19.1,8.3-21.9,16.2c-1.1,2.6-1.7,6.8-1.7,10.8v80.3H796L795.9,209.9L795.9,209.9z"/>
			</g>
			<g>
				<defs>
					<rect id="SVGID_00000142879602903537752430000003067717760736134793_" x="2.9" y="4.5" width="2221.3" height="441.4"/>
				</defs>
				<clipPath id="SVGID_00000054971235622925429520000010538637621142400136_">
					<use xlink:href="#SVGID_00000142879602903537752430000003067717760736134793_"  style="overflow:visible;"/>
				</clipPath>
				<path style="clip-path:url(#SVGID_00000054971235622925429520000010538637621142400136_);fill:#FFFFFF;" d="M1095.8,165.4
					c-0.6,8.8-1.1,20.5-1.1,41.3v77.7c0,26.8-5.4,48.7-21.1,62.7c-15.4,13.1-36.2,17.1-56.7,17.1c-18.2,0-37.6-3.7-50.1-10.8
					l8.5-32.8c8.8,5.1,24.2,10.5,40.4,10.5c20.5,0,36.2-11.1,36.2-36.7v-9.1h-0.6c-8.3,11.7-21.6,18.2-37.6,18.2
					c-34.5,0-59-27.9-59-68.1c0-44.7,29-73.2,63.2-73.2c19.1,0,31,8.3,38.2,19.6h0.6l1.5-16.4H1095.8z M1051.3,222.1
					c0-2.8-0.3-5.7-0.9-8c-3.1-11.4-11.4-19.1-23.4-19.1c-15.7,0-28.5,14.2-28.5,39.6c0,20.8,10.3,37,28.5,37
					c11.1,0,19.9-7.4,22.8-17.7c1.1-3.1,1.4-7.7,1.4-11.4L1051.3,222.1L1051.3,222.1z"/>
			</g>
			<g>
				<defs>
					<rect id="SVGID_00000011752106890133633350000004714717823206337409_" x="2.9" y="4.5" width="2221.3" height="441.4"/>
				</defs>
				<clipPath id="SVGID_00000003067662604584295120000014880695703252231302_">
					<use xlink:href="#SVGID_00000011752106890133633350000004714717823206337409_"  style="overflow:visible;"/>
				</clipPath>
				<path style="clip-path:url(#SVGID_00000003067662604584295120000014880695703252231302_);fill:#FFFFFF;" d="M1129.3,211.2
					c0-20.5-0.6-33.9-1.1-45.8h37.3l1.4,25.6h1.1c7.1-20.2,24.2-28.8,37.6-28.8c4,0,6,0,9.1,0.6v40.7c-3.1-0.6-6.8-1.1-11.7-1.1
					c-15.9,0-26.8,8.5-29.6,21.9c-0.6,2.8-0.9,6.3-0.9,9.7v70.6h-43.3L1129.3,211.2L1129.3,211.2z"/>
			</g>
			<g>
				<defs>
					<rect id="SVGID_00000179612432423347781900000010611592373671876000_" x="2.9" y="4.5" width="2221.3" height="441.4"/>
				</defs>
				<clipPath id="SVGID_00000013877692075115300760000008337723199895190968_">
					<use xlink:href="#SVGID_00000179612432423347781900000010611592373671876000_"  style="overflow:visible;"/>
				</clipPath>
				<path style="clip-path:url(#SVGID_00000013877692075115300760000008337723199895190968_);fill:#FFFFFF;" d="M1268.7,248.8
					c1.4,17.9,19.1,26.5,39.3,26.5c14.8,0,26.8-2,38.4-5.7l5.7,29.3c-14.2,5.7-31.6,8.5-50.4,8.5c-47.3,0-74.3-27.3-74.3-70.9
					c0-35.3,21.9-74.3,70.3-74.3c45,0,62.1,35,62.1,69.5c0,7.4-0.9,14-1.4,17.1L1268.7,248.8L1268.7,248.8z M1319.7,219.2
					c0-10.5-4.6-28.2-24.5-28.2c-18.2,0-25.6,16.5-26.8,28.2H1319.7z"/>
			</g>
			<g>
				<defs>
					<rect id="SVGID_00000156570378979331949280000012195232940235676077_" x="2.9" y="4.5" width="2221.3" height="441.4"/>
				</defs>
				<clipPath id="SVGID_00000136372064407059862730000014710998950192641925_">
					<use xlink:href="#SVGID_00000156570378979331949280000012195232940235676077_"  style="overflow:visible;"/>
				</clipPath>
				<path style="clip-path:url(#SVGID_00000136372064407059862730000014710998950192641925_);fill:#FFFFFF;" d="M1357,330.4
					c11.4-0.9,20.2-3.4,25.6-9.1c6.3-6.6,8.5-17.7,8.5-45.3V165.4h43.6v120.7c0,30.5-6.8,49-19.7,60.9c-12.8,12-33,17.1-53.8,17.1
					L1357,330.4z M1435.8,126.8c0,12-8.8,21.6-23.4,21.6c-13.7,0-22.5-9.7-22.5-21.6c0-12.5,8.8-21.9,23.1-21.9
					C1427,104.8,1435.6,114.2,1435.8,126.8"/>
			</g>
			<g>
				<defs>
					<rect id="SVGID_00000008146160359723820310000011301204504198500008_" x="2.9" y="4.5" width="2221.3" height="441.4"/>
				</defs>
				<clipPath id="SVGID_00000109017709424364362870000002431516968552309168_">
					<use xlink:href="#SVGID_00000008146160359723820310000011301204504198500008_"  style="overflow:visible;"/>
				</clipPath>
				<path style="clip-path:url(#SVGID_00000109017709424364362870000002431516968552309168_);fill:#FFFFFF;" d="M1606.2,233.6
					c0,51-36.2,74.3-73.5,74.3c-40.7,0-72.1-26.8-72.1-71.8s29.6-73.8,74.3-73.8C1577.7,162.4,1606.2,191.6,1606.2,233.6
					 M1505.3,234.9c0,23.9,10,41.9,28.5,41.9c16.8,0,27.6-16.8,27.6-41.9c0-20.8-8-41.9-27.6-41.9
					C1513.1,193.1,1505.3,214.4,1505.3,234.9"/>
			</g>
			<g>
				<defs>
					<rect id="SVGID_00000033367929289559244320000016211576080794142616_" x="2.9" y="4.5" width="2221.3" height="441.4"/>
				</defs>
				<clipPath id="SVGID_00000075140675985075871340000011771477554088075450_">
					<use xlink:href="#SVGID_00000033367929289559244320000016211576080794142616_"  style="overflow:visible;"/>
				</clipPath>
				<path style="clip-path:url(#SVGID_00000075140675985075871340000011771477554088075450_);fill:#FFFFFF;" d="M1664.2,128.1
					c0.3,8.5-6,15.4-15.9,15.4c-8.8,0-15.1-6.8-15.1-15.4c0-8.8,6.5-15.7,15.7-15.7C1658.2,112.4,1664.2,119.4,1664.2,128.1
					 M1636.3,166.9h25.1v137.8h-25.1V166.9z"/>
			</g>
			<g>
				<defs>
					<rect id="SVGID_00000069369065439304538280000002396298526950633917_" x="2.9" y="4.5" width="2221.3" height="441.4"/>
				</defs>
				<clipPath id="SVGID_00000128482551556332259450000003993218827106765234_">
					<use xlink:href="#SVGID_00000069369065439304538280000002396298526950633917_"  style="overflow:visible;"/>
				</clipPath>
				<path style="clip-path:url(#SVGID_00000128482551556332259450000003993218827106765234_);fill:#FFFFFF;" d="M1822.1,102.6v166.6
					c0,12.2,0.3,26.2,1.1,35.6h-22.5l-1.1-23.9h-0.6c-7.7,15.4-24.5,27.1-47,27.1c-33.3,0-59-28.2-59-70.1
					c-0.3-45.8,28.2-74,61.8-74c21.1,0,35.3,10,41.6,21.1h0.6v-82.4H1822.1z M1797,222.9c0-3.1-0.3-7.4-1.1-10.5
					c-3.7-15.9-17.4-29-36.2-29c-25.9,0-41.3,22.8-41.3,53.3c0,27.9,13.7,51,40.7,51c16.8,0,32.2-11.1,36.7-29.9
					c0.9-3.4,1.1-6.8,1.1-10.8v-24.1H1797z"/>
			</g>
			<g>
				<defs>
					<rect id="SVGID_00000129921934307208207310000012803640989703550115_" x="2.9" y="4.5" width="2221.3" height="441.4"/>
				</defs>
				<clipPath id="SVGID_00000121985134705342044830000006822238627015155109_">
					<use xlink:href="#SVGID_00000129921934307208207310000012803640989703550115_"  style="overflow:visible;"/>
				</clipPath>
				<path style="clip-path:url(#SVGID_00000121985134705342044830000006822238627015155109_);fill:#FFFFFF;" d="M1877.6,240.3
					c0.6,33.9,22.2,47.8,47.3,47.8c17.9,0,28.8-3.1,38.2-7.1l4.3,17.9c-8.8,4-23.9,8.5-45.8,8.5c-42.4,0-67.8-27.9-67.8-69.5
					s24.5-74.3,64.6-74.3c45,0,57,39.6,57,64.9c0,5.1-0.6,9.1-0.9,11.7h-96.9V240.3z M1951.1,222.4c0.3-15.9-6.6-40.7-34.7-40.7
					c-25.3,0-36.5,23.4-38.4,40.7H1951.1z"/>
			</g>
			<g>
				<defs>
					<rect id="SVGID_00000138536763780513454930000008683017714946658724_" x="2.9" y="4.5" width="2221.3" height="441.4"/>
				</defs>
				<clipPath id="SVGID_00000044871572796363055110000000684610024881703065_">
					<use xlink:href="#SVGID_00000138536763780513454930000008683017714946658724_"  style="overflow:visible;"/>
				</clipPath>
				<path style="clip-path:url(#SVGID_00000044871572796363055110000000684610024881703065_);fill:#FFFFFF;" d="M2082.6,304.8
					l-2-17.4h-0.9c-7.7,10.8-22.5,20.5-42.2,20.5c-27.9,0-42.1-19.7-42.1-39.6c0-33.3,29.6-51.5,82.9-51.3v-2.8
					c0-11.4-3.1-31.9-31.3-31.9c-12.8,0-26.2,4-35.9,10.3l-5.7-16.5c11.4-7.4,27.9-12.2,45.3-12.2c42.2,0,52.4,28.8,52.4,56.4v51.6
					c0,12,0.6,23.6,2.3,33h-22.8V304.8z M2078.8,234.3c-27.3-0.6-58.4,4.3-58.4,31c0,16.2,10.8,23.9,23.6,23.9
					c17.9,0,29.3-11.4,33.3-23.1c0.9-2.6,1.4-5.4,1.4-8v-23.8H2078.8z"/>
			</g>
			<g>
				<defs>
					<rect id="SVGID_00000065769859867441396700000018292463624443789189_" x="2.9" y="4.5" width="2221.3" height="441.4"/>
				</defs>
				<clipPath id="SVGID_00000072275826049982552080000013008179153443495342_">
					<use xlink:href="#SVGID_00000065769859867441396700000018292463624443789189_"  style="overflow:visible;"/>
				</clipPath>
				<path style="clip-path:url(#SVGID_00000072275826049982552080000013008179153443495342_);fill:#FFFFFF;" d="M2140.1,279.1
					c7.4,4.8,20.5,10,33,10c18.2,0,26.8-9.1,26.8-20.5c0-12-7.1-18.5-25.6-25.3c-24.8-8.8-36.4-22.5-36.4-39
					c0-22.2,17.9-40.4,47.6-40.4c14,0,26.2,4,33.9,8.5l-6.3,18.2c-5.4-3.4-15.4-8-28.2-8c-14.8,0-23.1,8.5-23.1,18.8
					c0,11.4,8.3,16.5,26.2,23.4c23.9,9.1,36.2,21.1,36.2,41.6c0,24.2-18.8,41.3-51.5,41.3c-15.1,0-29-3.7-38.7-9.4L2140.1,279.1z"/>
			</g>
		</g>
	</g>
</g>
</svg>
