<?xml version="1.0" encoding="utf-8"?>
<!-- Generator: Adobe Illustrator 27.7.0, SVG Export Plug-In . SVG Version: 6.00 Build 0)  -->
<svg version="1.1" id="Capa_1" xmlns="http://www.w3.org/2000/svg" xmlns:xlink="http://www.w3.org/1999/xlink" x="0px" y="0px"
	 viewBox="0 0 432 437" style="enable-background:new 0 0 432 437;" xml:space="preserve">
<style type="text/css">
	.st0{clip-path:url(#SVGID_00000047043605602128171430000008312735157254832055_);}
	.st1{clip-path:url(#SVGID_00000116204060431837532690000004554811241900129168_);fill:#EE8100;}
	.st2{clip-path:url(#SVGID_00000116204060431837532690000004554811241900129168_);fill:#FFFFFF;}
</style>
<g id="Ilustración_4_00000034083918025725231710000001840229503795714715_">
	<g>
		<defs>
			<rect id="SVGID_1_" x="4" y="6.5" width="424" height="424"/>
		</defs>
		<clipPath id="SVGID_00000064334644055977864480000001337527591739736231_">
			<use xlink:href="#SVGID_1_"  style="overflow:visible;"/>
		</clipPath>
		<g style="clip-path:url(#SVGID_00000064334644055977864480000001337527591739736231_);">
			<defs>
				<rect id="SVGID_00000175317713660481421990000005160903928866148488_" x="4" y="6.5" width="424" height="424"/>
			</defs>
			<clipPath id="SVGID_00000082346653919140386540000004915405858596622738_">
				<use xlink:href="#SVGID_00000175317713660481421990000005160903928866148488_"  style="overflow:visible;"/>
			</clipPath>
			<path style="clip-path:url(#SVGID_00000082346653919140386540000004915405858596622738_);fill:#EE8100;" d="M428,356.8
				c0,40.7-33,73.7-73.7,73.7H77.8C37,430.5,4,397.5,4,356.8V80.3C4,39.5,37,6.5,77.8,6.5h276.5c40.7,0,73.7,33,73.7,73.7V356.8z"/>
			<polygon style="clip-path:url(#SVGID_00000082346653919140386540000004915405858596622738_);fill:#FFFFFF;" points="116.2,266.8 
				99.7,262 81.6,303.7 103,274.4 113,277.1 			"/>
			<polygon style="clip-path:url(#SVGID_00000082346653919140386540000004915405858596622738_);fill:#FFFFFF;" points="332.3,262 
				315.5,267 317.7,273.3 319.2,277.5 329,274.4 350.4,303.7 			"/>
			<path style="clip-path:url(#SVGID_00000082346653919140386540000004915405858596622738_);fill:#FFFFFF;" d="M312.2,262.5
				l-17.7,4.6c-0.2-1-0.5-2-0.8-2.8h-4.6c-0.5-2-1.1-4-1.8-5.9l0-0.1l31.2-10.9c1.2,0.6,2.5,0.9,3.9,0.8c4-0.3,7-3.7,6.7-7.5
				c-0.2-2.8-2.2-5.2-4.8-6.1l0,0c0,0,0,0-0.1,0c0,0,0,0-0.1,0l0,0l-1.3-2.8l-13.7-29.6c1.3-1.9,1.7-4,1.1-5.9
				c12.2-9.7,15.5-28.7,6.9-45.5c-9.7-18.9-28.1-28.5-41.3-23.3c-1.3,0.5-3,1.5-4.1,2.3l21,50.6L267.5,152
				c-7.9,11.1-6.3,28.3,4.1,40c6.6,7.5,15.4,11.1,23.5,10.5c0.1,0.4,0.3,0.8,0.5,1.1c1.2,2.1,3.6,3.1,6.3,2.8l14.1,30.5
				c-0.7,0.9-1.2,2-1.4,3.2l-30.2,10.6l-0.2-0.5c-0.7-1.5-1.4-3-2.1-4.5c-0.3-0.5-0.6-1.1-0.9-1.6c0,0,0,0-0.1,0l0,0
				c-14.3-29.7-38.6-47.4-65.4-47.4s-51.1,17.7-65.4,47.4c0,0-0.1,0-0.1,0c-0.1,0-0.1,0-0.1,0c-0.3,0.5-0.6,1.1-0.9,1.6
				c-0.8,1.5-1.5,3-2.1,4.5l-0.1,0.3l-29.7-10.5c-0.2-1.2-0.7-2.3-1.4-3.2l14.1-30.5c2.7,0.3,5.2-0.7,6.3-2.8
				c0.2-0.4,0.3-0.7,0.5-1.1c8.1,0.6,16.9-3,23.6-10.5c10.4-11.7,11.9-28.9,4.1-40l-25.1,28.3l21-50.6c-1.1-0.7-2.9-1.8-4.1-2.3
				c-13.2-5.2-31.6,4.4-41.3,23.3c-8.6,16.8-5.3,35.8,6.9,45.5c-0.6,1.9-0.2,4,1,5.9l-15,32.4c-2.7,0.9-4.7,3.2-4.9,6.1
				c-0.3,3.9,2.7,7.2,6.7,7.5c1.4,0.1,2.7-0.2,3.9-0.8l30.7,10.7l-0.1,0.2c-0.7,1.9-1.3,3.9-1.8,5.9h-4.1c-0.3,0.8-0.5,1.8-0.8,2.8
				l-17.7-4.6l-0.8,2.6l-0.8,2.4l-2,6.4v0l-1.4,4.2l0,0l-7,21.8l12.6-20.1l14.8,4.6c0,1-0.1,1.9-0.1,2.8l4,0.3
				c0,0.6-0.1,1.3-0.1,1.9c0,0.1,0,0.2,0.1,0.4c0.3,0.9,1.8,2.1,3.7,2.7h0c0,0,22.2,8.6,72.9,8.6c50.8,0,72.9-8.6,72.9-8.6h0
				c1.9-0.6,3.4-1.8,3.7-2.7c0-0.1,0.1-0.3,0.1-0.4c0-0.6,0-1.2-0.1-1.9l4.6-0.3c0-0.9,0-1.8-0.1-2.8l14.8-4.6l12.6,20.1l-6.9-21.4
				L312.2,262.5z M113.3,238.8c-0.6,0.7-1.2,1.4-1.8,2c-0.2,0.2-0.4,0.4-0.6,0.6c0.5,0.6,0.9,1.2,1.3,1.8c0.4,0.5,0.7,1.1,1,1.7
				c-0.9-0.6-1.7-1.4-2.4-2.2c-0.2-0.2-0.4-0.5-0.6-0.7c0,0-0.1,0.1-0.1,0.1c-1,0.9-2.1,1.7-3.3,2.3c0.8-1.2,1.8-2.2,2.8-3.1
				c-0.5-0.6-1-1.3-1.4-2c-0.3-0.5-0.6-1-0.9-1.6c0.6,0.5,1.2,1,1.8,1.5c0.2,0.2,0.4,0.4,0.6,0.7c0.2,0.2,0.4,0.5,0.6,0.7
				c0.1-0.1,0.2-0.2,0.3-0.3c0,0,0.1-0.1,0.1-0.1c0.7-0.6,1.5-1.2,2.3-1.7c0.2-0.1,0.4-0.3,0.7-0.4
				C113.5,238.5,113.4,238.6,113.3,238.8 M167.6,286c-0.9,0.8-2,1.3-3.1,1.3h0c-1.2,0-2.3-0.5-3.3-1.4c-0.5-0.5-1-1.1-1.3-1.8
				c-0.6-1.2-1-2.7-1-4.3c0-0.1,0-0.1,0-0.2c0.1-2.6,1.1-4.8,2.6-6.1c0.9-0.7,1.9-1.2,3-1.2h0c1.9,0,3.5,1.2,4.5,3.1
				c0.7,1.2,1,2.8,1,4.4C170.1,282.3,169.1,284.6,167.6,286 M222.3,244.1c-0.2,1.1-0.5,2.2-0.7,3.3c-1.6,0-3.1,0.1-4.7,0.1
				c-0.4,0-0.8,0-1.2,0c-0.4,0-0.8,0-1.2,0c-1.5,0-3,0-4.4-0.1c-0.2-1.1-0.5-2.2-0.7-3.3c-0.3-1.3-0.7-2.6-1.1-3.8
				c-0.4-1.3-0.9-2.5-1.3-3.8c-0.5-1.3-0.9-2.5-1.4-3.8c-0.5-1.2-1.2-2.4-2-3.5c-0.2-0.3-0.5-0.6-0.7-0.9c0.2-0.2,0.3-0.4,0.4-0.7
				c0-2.1,0.2-2.1,0.8,0c0.3,0.8,0.5,1.5,0.8,2.3c0.5,1.4,2.1,1.5,2.9,0.4c0.4-0.5,0.7-1.1,1-1.7c0.3,0.7,0.7,1.3,1.2,1.9
				c0.8,0.9,2.3,0.4,2.6-0.7c0.1-0.3,0.3-1.2,0.5-2c0.6,1.3,1,3,2.4,3.5c0.7,0.3,1.3,0.3,1.9-0.2c0.6-0.6,1-1.4,1.3-2.3
				c0.2,0.5,0.4,0.9,0.7,1.4c0.5,1.1,2.2,0.9,2.7,0c0.2-0.3,0.4-0.6,0.5-1c0.1,0.4,0.2,0.9,0.4,1.3c0.4,1.2,2.3,1.7,2.9,0.4
				c0.3-0.6,0.6-1.3,0.8-1.9c0.2-0.5,0.4-1,0.7-1.4c0.8-1.6,0.4-1.7,0.9-0.3c0.2,0.5,0.5,0.8,0.8,0.9c-0.3,0.3-0.6,0.6-0.8,1
				c-0.8,1.1-1.5,2.3-2,3.5c-0.5,1.3-1,2.5-1.4,3.8c-0.5,1.2-0.9,2.5-1.3,3.8C223,241.5,222.7,242.8,222.3,244.1 M271.4,284.2
				c-0.2,0.5-0.5,0.9-0.8,1.2c-1,1.1-2.2,1.8-3.6,1.8h0h0c-1.1,0-2.1-0.4-3-1.2c-1.5-1.3-2.6-3.7-2.6-6.3c0-1.6,0.4-3,1-4.2
				c1-2,2.7-3.3,4.6-3.3h0h0c1.2,0,2.2,0.5,3.1,1.3c1.5,1.3,2.4,3.6,2.4,6.2c0,0,0,0,0,0.1C272.5,281.4,272.1,282.9,271.4,284.2
				 M229.9,247.3c-1.2,0-2.3,0-3.5,0.1c-0.9,0-1.7,0-2.6,0c0.9-1.8,5.2-11,5.5-11.4c0.7-1,2-3.4,2.6-4.5c1.1-2.3,2.2-4.5,3.1-7.2
				l-0.3-0.3c-1.3,0.5-2.4,1.3-3.4,2.1c-0.7-1.8-2.1-4.2-4.3-2.9c-0.9,0.5-1.6,1.4-2.1,2.4c-0.4-0.8-1-1.5-1.9-1.8
				c-0.5-0.2-1.2,0-1.5,0.4c-0.4,0.4-0.6,0.9-0.9,1.5c-0.4-0.7-0.8-1.3-1.3-2c-0.8-1-2.3-0.3-2.7,0.7c-0.2,0.6-0.4,1.9-0.7,3
				c-0.8-1.3-1.2-3.2-2.4-3.9c-0.6-0.4-1.4-0.2-1.9,0.2c-0.4,0.4-0.6,0.8-0.9,1.4c-0.2-0.6-0.4-1.1-0.6-1.5
				c-0.6-1.4-2.5-0.7-2.9,0.4c-0.2,0.5-0.4,1-0.5,1.4c-0.5-1.2-1.2-2.3-2.3-2.7c-2.2-0.9-3.3,1.5-3.9,3.3c-1-0.8-2-1.5-3.3-2
				l-0.3,0.3c0.9,2.6,2,4.9,3.1,7.2c0.6,1.1,1.2,2.2,1.9,3.2c0.3,0.4,4.5,9.4,6,12.6c-0.9,0-1.9,0-2.8,0c-1.2,0-2.4,0-3.5-0.1
				c-21.6-0.5-38.8-1.8-46.7-2.5c13.7-27.3,36.2-43.6,60.9-43.6c24.7,0,47.3,16.2,60.9,43.6C268.8,245.4,251.6,246.8,229.9,247.3
				 M319,238.7c0.8,0.5,1.6,1.1,2.4,1.7c0,0,0.1,0.1,0.1,0.1c0.1,0.1,0.2,0.2,0.4,0.3c0.2-0.2,0.4-0.5,0.7-0.7
				c0.2-0.2,0.4-0.4,0.6-0.6c0.6-0.6,1.1-1.1,1.8-1.6c-0.3,0.6-0.6,1.1-0.9,1.6l-1.4,2c1,1,2,1.9,2.8,3.1c-1.2-0.6-2.3-1.5-3.3-2.3
				c0,0-0.1-0.1-0.1-0.1c-0.9,1-1.9,2.1-3,2.9c0.6-1.3,1.5-2.4,2.3-3.5c-0.2-0.2-0.4-0.4-0.6-0.6c-0.6-0.6-1.3-1.3-1.8-2
				c-0.1-0.2-0.3-0.3-0.4-0.5C318.6,238.4,318.8,238.6,319,238.7"/>
		</g>
	</g>
</g>
</svg>
