<?xml version="1.0" encoding="UTF-8"?>
<svg id="Capa_2" data-name="Capa 2" xmlns="http://www.w3.org/2000/svg" viewBox="0 0 179 32">
  <defs>
    <style>
      .cls-1 {
        fill: #fff;
      }

      .cls-2 {
        fill: #ed8000;
      }
    </style>
  </defs>
  <g id="Capa_1-2" data-name="Capa 1">
    <rect class="cls-2" width="179" height="32" rx="6" ry="6"/>
    <g>
      <g>
        <polygon class="cls-1" points="17.17 20.79 15.43 20.29 13.5 24.72 15.77 21.6 16.83 21.89 17.17 20.79"/>
        <polygon class="cls-1" points="40.15 20.29 38.37 20.82 38.6 21.49 38.75 21.93 39.8 21.6 42.07 24.72 40.15 20.29"/>
        <path class="cls-1" d="m38.02,20.34l-1.88.49c-.03-.11-.05-.21-.08-.3h-.49c-.06-.21-.12-.42-.19-.63h0s3.31-1.16,3.31-1.16c.12.06.26.09.41.08.43-.03.75-.39.71-.8-.02-.3-.23-.55-.51-.64h0s0,0,0,0c0,0,0,0,0,0h0s-.14-.3-.14-.3l-1.46-3.14c.14-.2.18-.43.11-.63,1.3-1.03,1.65-3.05.73-4.83-1.03-2.01-2.99-3.03-4.39-2.48-.13.05-.32.16-.44.24l2.23,5.38-2.67-3.01c-.83,1.18-.67,3.01.43,4.25.71.8,1.64,1.18,2.5,1.12.01.04.03.08.05.12.12.22.39.33.67.3l1.5,3.24c-.08.1-.13.21-.15.34l-3.21,1.13-.02-.05c-.07-.16-.15-.32-.23-.48-.03-.06-.06-.11-.09-.17,0,0,0,0,0,0h0c-1.52-3.16-4.1-5.03-6.95-5.03s-5.43,1.88-6.95,5.04c0,0,0,0,0,0,0,0-.01,0-.01,0-.03.06-.06.11-.09.17-.08.16-.16.32-.23.48v.03s-3.17-1.11-3.17-1.11c-.02-.13-.07-.25-.15-.34l1.5-3.24c.29.03.55-.08.67-.3.02-.04.04-.08.05-.12.87.06,1.8-.32,2.5-1.12,1.1-1.25,1.27-3.07.43-4.25l-2.67,3.01,2.23-5.38c-.12-.08-.31-.19-.44-.24-1.4-.55-3.35.47-4.39,2.48-.92,1.78-.57,3.8.73,4.83-.07.2-.02.43.11.62l-1.6,3.44c-.29.09-.5.34-.52.65-.03.41.29.77.71.8.15.01.29-.02.41-.08l3.26,1.14v.03c-.08.21-.14.42-.2.63h-.44c-.03.09-.05.19-.08.3l-1.88-.49-.09.28-.08.25-.22.68h0s-.14.45-.14.45h0s-.75,2.32-.75,2.32l1.34-2.14,1.57.49c0,.1,0,.2,0,.29l.43.03c0,.07,0,.13,0,.2,0,.01,0,.03,0,.04.04.1.19.22.39.29h0s2.36.92,7.75.92c5.4,0,7.75-.92,7.75-.92h0c.2-.07.36-.19.39-.29,0-.01,0-.03,0-.04,0-.07,0-.13,0-.2l.49-.03c0-.09,0-.19,0-.29l1.57-.49,1.34,2.14-.73-2.27-.55-1.7Zm-21.15-2.52c-.06.08-.13.15-.2.22-.02.02-.05.04-.07.06.05.06.1.12.14.19.04.06.08.12.11.18-.1-.07-.18-.15-.25-.23-.02-.02-.05-.05-.07-.07,0,0,0,0-.01.01-.11.09-.22.18-.35.25.09-.13.19-.23.3-.33-.05-.07-.1-.14-.15-.21-.04-.05-.07-.11-.1-.17.07.05.13.11.19.16.02.02.04.05.07.07.02.02.04.05.07.07.01,0,.02-.02.04-.03,0,0,0,0,.01-.01.08-.06.16-.12.25-.18.02-.01.05-.03.07-.04-.01.02-.03.04-.04.05m5.78,5.02c-.09.09-.21.14-.33.14h0c-.13,0-.25-.06-.35-.15-.05-.05-.1-.12-.14-.19-.07-.13-.11-.29-.11-.46,0,0,0-.02,0-.02,0-.27.11-.51.27-.65.09-.08.2-.13.32-.13h0c.2,0,.37.13.48.33.07.13.11.29.11.47,0,.28-.1.52-.26.66m5.81-4.45c-.03.12-.05.23-.07.35-.17,0-.33,0-.5,0-.04,0-.08,0-.13,0s-.08,0-.13,0c-.16,0-.31,0-.47,0-.02-.12-.05-.23-.07-.35-.04-.14-.07-.27-.12-.41-.04-.13-.09-.27-.14-.4-.05-.13-.1-.27-.15-.4-.06-.13-.13-.26-.22-.37-.02-.03-.05-.06-.08-.09.02-.02.03-.04.04-.07,0-.22.02-.22.08,0,.03.08.06.16.08.25.05.15.22.16.31.04.04-.06.08-.12.11-.18.03.07.07.14.13.2.09.1.24.04.28-.08.01-.04.03-.12.05-.21.06.14.11.31.26.38.08.03.14.03.2-.03.07-.06.11-.15.13-.24.02.05.05.1.07.15.06.12.23.1.29,0,.02-.03.04-.07.05-.1.01.05.02.09.04.14.04.13.24.18.31.04.03-.07.06-.14.09-.2.02-.05.05-.1.07-.15.09-.17.04-.18.09-.03.02.05.05.08.09.1-.03.03-.06.07-.09.1-.09.11-.16.24-.22.37-.06.13-.1.27-.15.4-.05.13-.1.27-.14.4-.04.13-.08.27-.12.41m5.22,4.26s-.06.09-.09.13c-.1.12-.24.2-.39.2h0c-.12,0-.23-.05-.32-.13-.16-.14-.27-.39-.27-.67,0-.17.04-.32.1-.45.11-.21.28-.35.49-.35h0c.12,0,.24.05.33.14.15.14.26.38.26.66,0,0,0,0,0,0,0,.18-.04.34-.12.47m-4.42-3.92c-.12,0-.25,0-.37,0-.09,0-.18,0-.28,0,.1-.2.55-1.16.58-1.21.08-.11.21-.36.27-.48.12-.24.23-.48.33-.76l-.03-.03c-.14.05-.26.14-.36.23-.07-.19-.22-.45-.46-.3-.1.06-.17.15-.22.25-.04-.09-.1-.16-.2-.19-.05-.02-.13,0-.16.04-.04.05-.07.1-.09.16-.04-.07-.09-.14-.14-.21-.09-.11-.24-.03-.28.07-.02.06-.04.2-.07.32-.08-.14-.13-.33-.26-.42-.06-.04-.15-.03-.2.03-.04.04-.07.09-.09.14-.02-.06-.04-.11-.06-.16-.07-.15-.26-.08-.31.04-.02.05-.04.1-.06.15-.06-.13-.13-.25-.24-.29-.24-.09-.35.16-.42.35-.1-.08-.22-.16-.35-.21l-.03.03c.1.28.21.52.33.76.06.12.13.23.2.34.03.04.47,1,.64,1.34-.1,0-.2,0-.3,0-.13,0-.25,0-.37,0-2.29-.05-4.13-.19-4.97-.27,1.45-2.91,3.85-4.63,6.48-4.63s5.02,1.72,6.48,4.63c-.84.07-2.67.22-4.97.27m9.47-.91c.09.05.17.11.25.18,0,0,0,0,.01,0,.01,0,.03.02.04.03.02-.03.05-.05.07-.08.02-.02.04-.04.06-.06.06-.06.12-.12.19-.17-.03.06-.06.11-.1.16l-.15.21c.11.1.22.21.3.33-.13-.07-.24-.16-.35-.25,0,0,0,0-.01-.01-.1.11-.2.22-.32.31.07-.14.16-.26.25-.37-.02-.02-.04-.04-.07-.06-.07-.07-.13-.14-.19-.22-.01-.02-.03-.03-.04-.05.02.01.05.03.07.04"/>
      </g>
      <g>
        <path class="cls-1" d="m51.52,21.65l6.19-13.4c.06-.12.16-.22.34-.22h.2c.2,0,.28.1.34.22l6.13,13.4c.12.26-.04.52-.34.52h-1.73c-.3,0-.44-.12-.58-.4l-.98-2.15h-5.95l-.98,2.15c-.08.2-.26.4-.58.4h-1.73c-.3,0-.46-.26-.34-.52Zm8.6-4.24l-1.99-4.38h-.06l-1.95,4.38h4Z"/>
        <path class="cls-1" d="m71.85,22.39c-.92,0-1.79-.22-2.21-.38v4.46c0,.22-.22.44-.44.44h-1.61c-.24,0-.44-.22-.44-.44v-13.16c0-.22.16-.42.48-.42.84,0,1.29.5,1.43,1.17.54-.58,1.51-1.29,2.95-1.29,2.51,0,4.4,2.03,4.4,4.82s-1.81,4.8-4.56,4.8Zm-2.21-2.79s.76.52,1.91.52c1.51,0,2.29-1.24,2.29-2.53s-.74-2.55-2.17-2.55c-1.19,0-1.83.76-2.03,1.27v3.29Z"/>
        <path class="cls-1" d="m84.31,22.39c-.92,0-1.79-.22-2.21-.38v4.46c0,.22-.22.44-.44.44h-1.61c-.24,0-.44-.22-.44-.44v-13.16c0-.22.16-.42.48-.42.84,0,1.29.5,1.43,1.17.54-.58,1.51-1.29,2.95-1.29,2.51,0,4.4,2.03,4.4,4.82s-1.81,4.8-4.56,4.8Zm-2.21-2.79s.76.52,1.91.52c1.51,0,2.29-1.24,2.29-2.53s-.74-2.55-2.17-2.55c-1.19,0-1.83.76-2.03,1.27v3.29Z"/>
        <path class="cls-1" d="m92.09,8.67c0-.22.22-.44.44-.44h1.61c.22,0,.44.22.44.44v13.06c0,.24-.22.44-.44.44h-1.61c-.22,0-.44-.2-.44-.44v-13.06Z"/>
        <path class="cls-1" d="m98.76,26.29l1.83-4.42-3.11-8.3c-.12-.32.04-.6.4-.6h1.91c.2,0,.34.1.38.26l1.69,5.68h.04l2.09-5.68c.1-.26.3-.26.58-.26h1.59c.36,0,.52.3.4.6l-5.36,13.06c-.06.14-.22.28-.4.28h-1.65c-.36,0-.54-.3-.4-.62Z"/>
        <path class="cls-1" d="m115.35,8.61c0-.2.18-.38.38-.38h1.85c.22,0,.38.18.38.38v5.28h6.49v-5.28c0-.2.16-.38.38-.38h1.83c.2,0,.38.18.38.38v13.18c0,.2-.18.38-.38.38h-1.83c-.22,0-.38-.18-.38-.38v-5.5h-6.49v5.5c0,.2-.16.38-.38.38h-1.85c-.2,0-.38-.18-.38-.38v-13.18Z"/>
        <path class="cls-1" d="m134.92,12.77c2.39,0,4.22,1.77,4.22,4.26,0,.14-.02.46-.04.6-.02.24-.24.42-.44.42h-5.89c.02,1.13.96,2.13,2.29,2.13.92,0,1.55-.34,1.97-.68.22-.18.46-.2.6,0l.78,1.04c.16.18.18.4-.04.6-.8.68-1.93,1.25-3.43,1.25-2.75,0-4.66-2.19-4.66-4.82s1.91-4.8,4.64-4.8Zm1.71,3.64c-.04-.9-.76-1.59-1.77-1.59-1.12,0-1.83.68-1.95,1.59h3.72Z"/>
        <path class="cls-1" d="m142.2,13.31c0-.22.16-.42.48-.42.86,0,1.33.56,1.45,1.25.34-.46,1.17-1.37,2.57-1.37,1.1,0,1.99.3,1.73.9l-.6,1.35c-.1.22-.32.3-.54.2s-.44-.18-.86-.18c-1,0-1.59.64-1.75.96v5.73c0,.34-.22.44-.52.44h-1.53c-.22,0-.44-.2-.44-.44v-8.42Z"/>
        <path class="cls-1" d="m154.95,12.77c2.39,0,4.22,1.77,4.22,4.26,0,.14-.02.46-.04.6-.02.24-.24.42-.44.42h-5.89c.02,1.13.96,2.13,2.29,2.13.92,0,1.55-.34,1.97-.68.22-.18.46-.2.6,0l.78,1.04c.16.18.18.4-.04.6-.8.68-1.93,1.25-3.43,1.25-2.75,0-4.66-2.19-4.66-4.82s1.91-4.8,4.64-4.8Zm1.71,3.64c-.04-.9-.76-1.59-1.77-1.59-1.12,0-1.83.68-1.95,1.59h3.72Z"/>
        <path class="cls-1" d="m162.87,16.93l-.56-7.77c-.04-.64.68-1.14,1.59-1.14s1.63.5,1.59,1.14l-.54,7.77c-.02.34-.5.64-1.06.64s-1.02-.3-1.04-.64Zm1.02,2.45c.84,0,1.51.7,1.51,1.49s-.68,1.49-1.51,1.49-1.47-.68-1.47-1.49.68-1.49,1.47-1.49Z"/>
      </g>
    </g>
  </g>
</svg>