<?xml version="1.0" encoding="utf-8"?>
<!-- Generator: Adobe Illustrator 27.7.0, SVG Export Plug-In . SVG Version: 6.00 Build 0)  -->
<svg version="1.1" id="Capa_1" xmlns="http://www.w3.org/2000/svg" xmlns:xlink="http://www.w3.org/1999/xlink" x="0px" y="0px"
	 viewBox="0 0 179 32" style="enable-background:new 0 0 179 32;" xml:space="preserve">
<style type="text/css">
	.st0{fill:#ED8000;}
	.st1{fill:#FFFFFF;}
</style>
<path class="st0" d="M6,0h167c3.3,0,6,2.7,6,6v20c0,3.3-2.7,6-6,6H6c-3.3,0-6-2.7-6-6V6C0,2.7,2.7,0,6,0z"/>
<g>
	<polygon class="st1" points="12,21.5 10.2,21 8.3,25.4 10.6,22.3 11.6,22.6 	"/>
	<polygon class="st1" points="34.9,21 33.2,21.5 33.4,22.2 33.5,22.6 34.6,22.3 36.9,25.4 	"/>
	<path class="st1" d="M32.8,21.1l-1.9,0.5c0-0.1-0.1-0.2-0.1-0.3h-0.5c-0.1-0.2-0.1-0.4-0.2-0.6l0,0l3.3-1.2
		c0.1,0.1,0.3,0.1,0.4,0.1c0.4,0,0.7-0.4,0.7-0.8c0-0.3-0.2-0.5-0.5-0.6l0,0l0,0l0,0l0,0l-0.1-0.3l-1.5-3.1c0.1-0.2,0.2-0.4,0.1-0.6
		c1.3-1,1.6-3.1,0.7-4.8c-1-2-3-3-4.4-2.5c-0.1,0.1-0.3,0.2-0.4,0.2l2.2,5.4l-2.7-3c-0.8,1.2-0.7,3,0.4,4.3c0.7,0.8,1.6,1.2,2.5,1.1
		V15c0.1,0.2,0.4,0.3,0.7,0.3l1.5,3.2c-0.1,0.1-0.1,0.2-0.2,0.3l-3.2,1.1l0,0c-0.1-0.2-0.1-0.3-0.2-0.5c0-0.1-0.1-0.1-0.1-0.2l0,0
		l0,0c-1.5-3.2-4.1-5-7-5s-5.4,1.9-7,5l0,0l0,0c0,0.1-0.1,0.1-0.1,0.2c-0.1,0.2-0.2,0.3-0.2,0.5l0,0l-3.2-1.1c0-0.1-0.1-0.2-0.2-0.3
		l1.5-3.2c0.3,0,0.5-0.1,0.7-0.3v-0.1c0.9,0.1,1.8-0.3,2.5-1.1c1.1-1.2,1.3-3.1,0.4-4.3l-2.7,3L16.7,7c-0.1-0.1-0.3-0.2-0.4-0.2
		c-1.4-0.6-3.4,0.5-4.4,2.5c-1,1.7-0.6,3.7,0.7,4.7c-0.1,0.2,0,0.4,0.1,0.6L11.1,18c-0.3,0.1-0.5,0.3-0.5,0.6c0,0.4,0.3,0.8,0.7,0.8
		c0.1,0,0.3,0,0.4-0.1l3.3,1.1l0,0c-0.1,0.2-0.1,0.4-0.2,0.6h-0.4c0,0.1-0.1,0.2-0.1,0.3l-1.9-0.5l-0.1,0.3l-0.1,0.2l-0.2,1l0,0
		l-0.1,0.4l0,0L11.1,25l1.3-2.1l1.6,0.5c0,0.1,0,0.2,0,0.3h0.4c0,0.1,0,0.1,0,0.2l0,0c0,0.1,0.2,0.2,0.4,0.3l0,0
		c0,0,2.4,0.9,7.8,0.9s7.8-0.9,7.8-0.9l0,0c0.2-0.1,0.4-0.2,0.4-0.3l0,0c0-0.1,0-0.1,0-0.2h0.5c0-0.1,0-0.2,0-0.3l1.6-0.5l1.3,2.1
		l-0.7-2.3L32.8,21.1z M11.7,18.5c-0.1,0.1-0.1,0.1-0.2,0.2c0,0,0,0-0.1,0.1c0,0.1,0.1,0.1,0.1,0.2s0.1,0.1,0.1,0.2
		c-0.1-0.1-0.2-0.1-0.3-0.2c0,0,0,0-0.1-0.1l0,0c-0.1,0.1-0.2,0.2-0.4,0.2c0.1-0.1,0.2-0.2,0.3-0.3c-0.1-0.1-0.1-0.1-0.2-0.2
		c0-0.1-0.1-0.1-0.1-0.2c0.1,0,0.1,0.1,0.2,0.2c0,0,0,0,0.1,0.1c0,0,0,0,0.1,0.1l0,0l0,0C11.5,18.6,11.5,18.6,11.7,18.5L11.7,18.5
		L11.7,18.5 M17.4,23.6c-0.1,0.1-0.2,0.1-0.3,0.1l0,0c-0.1,0-0.2-0.1-0.3-0.2c-0.1-0.1-0.1-0.1-0.1-0.2c-0.1-0.1-0.1-0.3-0.1-0.5
		l0,0c0-0.3,0.1-0.5,0.3-0.7C17,22,17.1,22,17.2,22l0,0c0.2,0,0.4,0.1,0.5,0.3c0.1,0.1,0.1,0.3,0.1,0.5
		C17.7,23.2,17.6,23.4,17.4,23.6 M23.3,19.1c0,0.1-0.1,0.2-0.1,0.3c-0.2,0-0.3,0-0.5,0h-0.1h-0.1c-0.2,0-0.3,0-0.5,0
		c0-0.1,0-0.2-0.1-0.3c0-0.1-0.1-0.3-0.1-0.4s-0.1-0.3-0.1-0.4c-0.1-0.1-0.1-0.3-0.2-0.4s-0.1-0.3-0.2-0.4l-0.1-0.1c0,0,0,0,0-0.1
		c0-0.2,0-0.2,0.1,0c0,0.1,0.1,0.2,0.1,0.2c0,0.1,0.2,0.2,0.3,0c0-0.1,0.1-0.1,0.1-0.2c0,0.1,0.1,0.1,0.1,0.2c0.1,0.1,0.2,0,0.3-0.1
		c0,0,0-0.1,0-0.2c0.1,0.1,0.1,0.3,0.3,0.4c0.1,0,0.1,0,0.2,0c0.1-0.1,0.1-0.1,0.1-0.2c0,0,0,0.1,0.1,0.1c0.1,0.1,0.2,0.1,0.3,0
		c0,0,0-0.1,0.1-0.1v0.1c0,0.1,0.2,0.2,0.3,0c0-0.1,0.1-0.1,0.1-0.2s0-0.1,0.1-0.2c0.1-0.2,0-0.2,0.1,0l0.1,0.1l-0.1,0.1
		c-0.1,0.1-0.2,0.2-0.2,0.4c-0.1,0.1-0.1,0.3-0.2,0.4c0,0.1-0.1,0.3-0.1,0.4C23.3,18.8,23.3,19,23.3,19.1 M28.5,23.4l-0.1,0.1
		c-0.1,0.1-0.2,0.2-0.4,0.2l0,0l0,0c-0.1,0-0.2,0-0.3-0.1c-0.2-0.1-0.3-0.4-0.3-0.7c0-0.2,0-0.3,0.1-0.5S27.8,22,28,22l0,0l0,0
		c0.1,0,0.2,0.1,0.3,0.1c0.2,0.1,0.3,0.4,0.3,0.7l0,0C28.6,23.1,28.5,23.2,28.5,23.4 M24.1,19.4c-0.1,0-0.2,0-0.4,0
		c-0.1,0-0.2,0-0.3,0c0.1-0.2,0.5-1.2,0.6-1.2c0.1-0.1,0.2-0.4,0.3-0.5c0.1-0.2,0.2-0.5,0.3-0.8l0,0c-0.1,0.1-0.3,0.1-0.4,0.2
		c-0.1-0.2-0.2-0.4-0.5-0.3c-0.1,0.1-0.2,0.1-0.2,0.2c0-0.1-0.1-0.2-0.2-0.2s-0.1,0-0.2,0c0,0-0.1,0.1-0.1,0.2
		c0-0.1-0.1-0.1-0.1-0.2c-0.1-0.1-0.2,0-0.3,0.1c0,0.1,0,0.2-0.1,0.3c-0.1-0.1-0.1-0.3-0.3-0.4c-0.1,0-0.2,0-0.2,0l-0.1,0.1
		c0-0.1,0-0.1-0.1-0.2s-0.3-0.1-0.3,0s0,0.1-0.1,0.2c-0.1-0.1-0.1-0.2-0.2-0.3c-0.2-0.1-0.4,0.2-0.4,0.4c-0.1-0.1-0.2-0.2-0.3-0.2
		l0,0c0.1,0.3,0.2,0.5,0.3,0.8c0.1,0.1,0.1,0.2,0.2,0.3c0,0,0.5,1,0.6,1.3c-0.1,0-0.2,0-0.3,0c-0.1,0-0.3,0-0.4,0
		c-2.3-0.1-4.1-0.2-5-0.3c1.5-2.9,3.8-4.6,6.5-4.6c2.6,0,5,1.7,6.5,4.6C28.2,19.2,26.4,19.4,24.1,19.4 M33.5,18.5
		c0.1,0.1,0.2,0.1,0.2,0.2l0,0l0,0c0,0,0-0.1,0.1-0.1c0,0,0,0,0.1-0.1s0.1-0.1,0.2-0.2c0,0.1-0.1,0.1-0.1,0.2l-0.2,0.2
		c0.1,0.1,0.2,0.2,0.3,0.3c-0.1-0.1-0.2-0.2-0.4-0.2l0,0c-0.1,0.1-0.2,0.2-0.3,0.3c0.1-0.1,0.2-0.3,0.2-0.4
		C33.6,18.7,33.6,18.7,33.5,18.5C33.6,18.7,33.6,18.6,33.5,18.5L33.5,18.5L33.5,18.5"/>
</g>
<g>
	<path class="st1" d="M46.3,22.4L52.5,9c0.1-0.1,0.2-0.2,0.3-0.2H53c0.2,0,0.3,0.1,0.3,0.2l6.1,13.4c0.1,0.3,0,0.5-0.3,0.5h-1.7
		c-0.3,0-0.4-0.1-0.6-0.4l-1-2.2h-6l-1,2.2c-0.1,0.2-0.3,0.4-0.6,0.4h-1.7C46.4,22.9,46.2,22.6,46.3,22.4z M54.9,18.1l-2-4.4h-0.1
		l-2,4.4H54.9z"/>
	<path class="st1" d="M66.6,23.1c-0.9,0-1.8-0.2-2.2-0.4v4.5c0,0.2-0.2,0.4-0.4,0.4h-1.6c-0.2,0-0.4-0.2-0.4-0.4V14
		c0-0.2,0.2-0.4,0.5-0.4c0.8,0,1.3,0.5,1.4,1.2c0.5-0.6,1.5-1.3,2.9-1.3c2.5,0,4.4,2,4.4,4.8C71.2,21,69.4,23.1,66.6,23.1z
		 M64.4,20.3c0,0,0.8,0.5,1.9,0.5c1.5,0,2.3-1.2,2.3-2.5s-0.7-2.5-2.2-2.5c-1.2,0-1.8,0.8-2,1.3C64.4,17.1,64.4,20.3,64.4,20.3z"/>
	<path class="st1" d="M79.1,23.1c-0.9,0-1.8-0.2-2.2-0.4v4.5c0,0.2-0.2,0.4-0.4,0.4h-1.6c-0.2,0-0.4-0.2-0.4-0.4V14
		c0-0.2,0.2-0.4,0.5-0.4c0.8,0,1.3,0.5,1.4,1.2c0.5-0.6,1.5-1.3,2.9-1.3c2.5,0,4.4,2,4.4,4.8C83.7,21,81.9,23.1,79.1,23.1z
		 M76.9,20.3c0,0,0.8,0.5,1.9,0.5c1.5,0,2.3-1.2,2.3-2.5s-0.7-2.5-2.2-2.5c-1.2,0-1.8,0.8-2,1.3C76.9,17.1,76.9,20.3,76.9,20.3z"/>
	<path class="st1" d="M86.9,9.4c0-0.2,0.2-0.4,0.4-0.4h1.6c0.2,0,0.4,0.2,0.4,0.4v13.1c0,0.2-0.2,0.4-0.4,0.4h-1.6
		c-0.2,0-0.4-0.2-0.4-0.4V9.4z"/>
	<path class="st1" d="M93.6,27l1.8-4.4l-3.1-8.3c-0.1-0.3,0-0.6,0.4-0.6h1.9c0.2,0,0.3,0.1,0.4,0.3l1.7,5.7l0,0l2.1-5.7
		c0.1-0.3,0.3-0.3,0.6-0.3h1.6c0.4,0,0.5,0.3,0.4,0.6l-5.4,13c-0.1,0.1-0.2,0.3-0.4,0.3H94C93.6,27.6,93.4,27.3,93.6,27z"/>
	<path class="st1" d="M110.1,9.3c0-0.2,0.2-0.4,0.4-0.4h1.9c0.2,0,0.4,0.2,0.4,0.4v5.3h6.5V9.3c0-0.2,0.2-0.4,0.4-0.4h1.8
		c0.2,0,0.4,0.2,0.4,0.4v13.2c0,0.2-0.2,0.4-0.4,0.4h-1.8c-0.2,0-0.4-0.2-0.4-0.4V17h-6.5v5.5c0,0.2-0.2,0.4-0.4,0.4h-1.9
		c-0.2,0-0.4-0.2-0.4-0.4V9.3z"/>
	<path class="st1" d="M129.7,13.5c2.4,0,4.2,1.8,4.2,4.3c0,0.1,0,0.5,0,0.6c0,0.2-0.2,0.4-0.4,0.4h-5.9c0,1.1,1,2.1,2.3,2.1
		c0.9,0,1.6-0.3,2-0.7c0.2-0.2,0.5-0.2,0.6,0l0.8,1c0.2,0.2,0.2,0.4,0,0.6c-0.8,0.7-1.9,1.3-3.4,1.3c-2.7,0-4.7-2.2-4.7-4.8
		C125.1,15.7,127,13.5,129.7,13.5z M131.4,17.1c0-0.9-0.8-1.6-1.8-1.6c-1.1,0-1.8,0.7-2,1.6H131.4z"/>
	<path class="st1" d="M137,14c0-0.2,0.2-0.4,0.5-0.4c0.9,0,1.3,0.6,1.5,1.3c0.3-0.5,1.2-1.4,2.6-1.4c1.1,0,2,0.3,1.7,0.9l-0.6,1.4
		c-0.1,0.2-0.3,0.3-0.5,0.2s-0.4-0.2-0.9-0.2c-1,0-1.6,0.6-1.8,1v5.7c0,0.3-0.2,0.4-0.5,0.4h-1.5c-0.2,0-0.4-0.2-0.4-0.4V14H137z"/>
	<path class="st1" d="M149.7,13.5c2.4,0,4.2,1.8,4.2,4.3c0,0.1,0,0.5,0,0.6c0,0.2-0.2,0.4-0.4,0.4h-5.9c0,1.1,1,2.1,2.3,2.1
		c0.9,0,1.6-0.3,2-0.7c0.2-0.2,0.5-0.2,0.6,0l0.8,1c0.2,0.2,0.2,0.4,0,0.6c-0.8,0.7-1.9,1.3-3.4,1.3c-2.7,0-4.7-2.2-4.7-4.8
		C145.1,15.7,147,13.5,149.7,13.5z M151.5,17.1c0-0.9-0.8-1.6-1.8-1.6c-1.1,0-1.8,0.7-2,1.6H151.5z"/>
	<path class="st1" d="M157.7,17.7l-0.6-7.8c0-0.6,0.7-1.1,1.6-1.1c0.9,0,1.6,0.5,1.6,1.1l-0.5,7.8c0,0.3-0.5,0.6-1.1,0.6
		S157.7,18,157.7,17.7z M158.7,20.1c0.8,0,1.5,0.7,1.5,1.5s-0.7,1.5-1.5,1.5s-1.5-0.7-1.5-1.5C157.2,20.8,157.9,20.1,158.7,20.1z"/>
</g>
</svg>
