<?xml version="1.0" encoding="utf-8"?>
<!-- Generator: Adobe Illustrator 27.7.0, SVG Export Plug-In . SVG Version: 6.00 Build 0)  -->
<svg version="1.1" id="Capa_1" xmlns="http://www.w3.org/2000/svg" xmlns:xlink="http://www.w3.org/1999/xlink" x="0px" y="0px"
	 viewBox="0 0 179 32" style="enable-background:new 0 0 179 32;" xml:space="preserve">
<style type="text/css">
	.st0{fill:#ED8000;}
	.st1{fill:#FFFFFF;}
</style>
<path class="st0" d="M6,0h167c3.3,0,6,2.7,6,6v20c0,3.3-2.7,6-6,6H6c-3.3,0-6-2.7-6-6V6C0,2.7,2.7,0,6,0z"/>
<g>
	<g>
		<polygon class="st1" points="17.2,20.8 15.4,20.3 13.5,24.7 15.8,21.6 16.8,21.9 		"/>
		<polygon class="st1" points="40.1,20.3 38.4,20.8 38.6,21.5 38.8,21.9 39.8,21.6 42.1,24.7 		"/>
		<path class="st1" d="M38,20.3l-1.9,0.5c0-0.1-0.1-0.2-0.1-0.3h-0.5c-0.1-0.2-0.1-0.4-0.2-0.6l0,0l3.3-1.2c0.1,0.1,0.3,0.1,0.4,0.1
			c0.4,0,0.7-0.4,0.7-0.8c0-0.3-0.2-0.5-0.5-0.6l0,0c0,0,0,0,0,0c0,0,0,0,0,0l0,0l-0.1-0.3l-1.5-3.1c0.1-0.2,0.2-0.4,0.1-0.6
			c1.3-1,1.6-3.1,0.7-4.8c-1-2-3-3-4.4-2.5C34,6,33.8,6.2,33.7,6.2l2.2,5.4l-2.7-3c-0.8,1.2-0.7,3,0.4,4.3c0.7,0.8,1.6,1.2,2.5,1.1
			c0,0,0,0.1,0,0.1c0.1,0.2,0.4,0.3,0.7,0.3l1.5,3.2c-0.1,0.1-0.1,0.2-0.2,0.3l-3.2,1.1l0,0c-0.1-0.2-0.1-0.3-0.2-0.5
			c0-0.1-0.1-0.1-0.1-0.2c0,0,0,0,0,0l0,0c-1.5-3.2-4.1-5-7-5s-5.4,1.9-7,5c0,0,0,0,0,0c0,0,0,0,0,0c0,0.1-0.1,0.1-0.1,0.2
			c-0.1,0.2-0.2,0.3-0.2,0.5l0,0L17.3,18c0-0.1-0.1-0.2-0.2-0.3l1.5-3.2c0.3,0,0.5-0.1,0.7-0.3c0,0,0-0.1,0-0.1
			c0.9,0.1,1.8-0.3,2.5-1.1c1.1-1.2,1.3-3.1,0.4-4.3l-2.7,3l2.2-5.4C21.8,6.2,21.6,6,21.4,6C20,5.4,18.1,6.5,17,8.5
			c-0.9,1.8-0.6,3.8,0.7,4.8c-0.1,0.2,0,0.4,0.1,0.6l-1.6,3.4c-0.3,0.1-0.5,0.3-0.5,0.6c0,0.4,0.3,0.8,0.7,0.8c0.1,0,0.3,0,0.4-0.1
			l3.3,1.1l0,0c-0.1,0.2-0.1,0.4-0.2,0.6h-0.4c0,0.1-0.1,0.2-0.1,0.3l-1.9-0.5l-0.1,0.3l-0.1,0.2l-0.2,0.7v0L17,22l0,0l-0.7,2.3
			l1.3-2.1l1.6,0.5c0,0.1,0,0.2,0,0.3l0.4,0c0,0.1,0,0.1,0,0.2c0,0,0,0,0,0c0,0.1,0.2,0.2,0.4,0.3h0c0,0,2.4,0.9,7.8,0.9
			c5.4,0,7.8-0.9,7.8-0.9h0c0.2-0.1,0.4-0.2,0.4-0.3c0,0,0,0,0,0c0-0.1,0-0.1,0-0.2l0.5,0c0-0.1,0-0.2,0-0.3l1.6-0.5l1.3,2.1
			L38.6,22L38,20.3z M16.9,17.8c-0.1,0.1-0.1,0.1-0.2,0.2c0,0,0,0-0.1,0.1c0,0.1,0.1,0.1,0.1,0.2c0,0.1,0.1,0.1,0.1,0.2
			c-0.1-0.1-0.2-0.1-0.3-0.2c0,0,0,0-0.1-0.1c0,0,0,0,0,0c-0.1,0.1-0.2,0.2-0.4,0.2c0.1-0.1,0.2-0.2,0.3-0.3
			c-0.1-0.1-0.1-0.1-0.2-0.2c0-0.1-0.1-0.1-0.1-0.2c0.1,0,0.1,0.1,0.2,0.2c0,0,0,0,0.1,0.1c0,0,0,0,0.1,0.1c0,0,0,0,0,0c0,0,0,0,0,0
			C16.7,17.9,16.7,17.9,16.9,17.8C16.9,17.8,16.9,17.8,16.9,17.8C16.9,17.8,16.9,17.8,16.9,17.8 M22.6,22.8
			c-0.1,0.1-0.2,0.1-0.3,0.1h0c-0.1,0-0.2-0.1-0.3-0.2c-0.1-0.1-0.1-0.1-0.1-0.2c-0.1-0.1-0.1-0.3-0.1-0.5c0,0,0,0,0,0
			c0-0.3,0.1-0.5,0.3-0.7c0.1-0.1,0.2-0.1,0.3-0.1h0c0.2,0,0.4,0.1,0.5,0.3c0.1,0.1,0.1,0.3,0.1,0.5C22.9,22.4,22.8,22.7,22.6,22.8
			 M28.5,18.4c0,0.1-0.1,0.2-0.1,0.3c-0.2,0-0.3,0-0.5,0c0,0-0.1,0-0.1,0c0,0-0.1,0-0.1,0c-0.2,0-0.3,0-0.5,0c0-0.1,0-0.2-0.1-0.3
			c0-0.1-0.1-0.3-0.1-0.4c0-0.1-0.1-0.3-0.1-0.4c-0.1-0.1-0.1-0.3-0.2-0.4c-0.1-0.1-0.1-0.3-0.2-0.4c0,0-0.1-0.1-0.1-0.1
			c0,0,0,0,0-0.1c0-0.2,0-0.2,0.1,0c0,0.1,0.1,0.2,0.1,0.2c0,0.1,0.2,0.2,0.3,0c0-0.1,0.1-0.1,0.1-0.2c0,0.1,0.1,0.1,0.1,0.2
			c0.1,0.1,0.2,0,0.3-0.1c0,0,0-0.1,0-0.2c0.1,0.1,0.1,0.3,0.3,0.4c0.1,0,0.1,0,0.2,0c0.1-0.1,0.1-0.1,0.1-0.2c0,0,0,0.1,0.1,0.1
			c0.1,0.1,0.2,0.1,0.3,0c0,0,0-0.1,0.1-0.1c0,0,0,0.1,0,0.1c0,0.1,0.2,0.2,0.3,0c0-0.1,0.1-0.1,0.1-0.2c0-0.1,0-0.1,0.1-0.2
			c0.1-0.2,0-0.2,0.1,0c0,0,0.1,0.1,0.1,0.1c0,0-0.1,0.1-0.1,0.1c-0.1,0.1-0.2,0.2-0.2,0.4c-0.1,0.1-0.1,0.3-0.2,0.4
			c0,0.1-0.1,0.3-0.1,0.4C28.5,18.1,28.5,18.2,28.5,18.4 M33.7,22.6c0,0-0.1,0.1-0.1,0.1c-0.1,0.1-0.2,0.2-0.4,0.2h0h0
			c-0.1,0-0.2,0-0.3-0.1c-0.2-0.1-0.3-0.4-0.3-0.7c0-0.2,0-0.3,0.1-0.5c0.1-0.2,0.3-0.4,0.5-0.4h0h0c0.1,0,0.2,0.1,0.3,0.1
			c0.2,0.1,0.3,0.4,0.3,0.7c0,0,0,0,0,0C33.8,22.3,33.8,22.5,33.7,22.6 M29.3,18.7c-0.1,0-0.2,0-0.4,0c-0.1,0-0.2,0-0.3,0
			c0.1-0.2,0.5-1.2,0.6-1.2c0.1-0.1,0.2-0.4,0.3-0.5c0.1-0.2,0.2-0.5,0.3-0.8l0,0c-0.1,0.1-0.3,0.1-0.4,0.2
			c-0.1-0.2-0.2-0.4-0.5-0.3c-0.1,0.1-0.2,0.1-0.2,0.2c0-0.1-0.1-0.2-0.2-0.2c-0.1,0-0.1,0-0.2,0c0,0-0.1,0.1-0.1,0.2
			c0-0.1-0.1-0.1-0.1-0.2c-0.1-0.1-0.2,0-0.3,0.1c0,0.1,0,0.2-0.1,0.3c-0.1-0.1-0.1-0.3-0.3-0.4c-0.1,0-0.2,0-0.2,0
			c0,0-0.1,0.1-0.1,0.1c0-0.1,0-0.1-0.1-0.2c-0.1-0.1-0.3-0.1-0.3,0c0,0.1,0,0.1-0.1,0.2c-0.1-0.1-0.1-0.2-0.2-0.3
			c-0.2-0.1-0.4,0.2-0.4,0.4c-0.1-0.1-0.2-0.2-0.3-0.2l0,0c0.1,0.3,0.2,0.5,0.3,0.8c0.1,0.1,0.1,0.2,0.2,0.3c0,0,0.5,1,0.6,1.3
			c-0.1,0-0.2,0-0.3,0c-0.1,0-0.3,0-0.4,0c-2.3-0.1-4.1-0.2-5-0.3c1.5-2.9,3.8-4.6,6.5-4.6c2.6,0,5,1.7,6.5,4.6
			C33.4,18.5,31.6,18.7,29.3,18.7 M38.7,17.8c0.1,0.1,0.2,0.1,0.2,0.2c0,0,0,0,0,0c0,0,0,0,0,0c0,0,0-0.1,0.1-0.1c0,0,0,0,0.1-0.1
			c0.1-0.1,0.1-0.1,0.2-0.2c0,0.1-0.1,0.1-0.1,0.2l-0.2,0.2c0.1,0.1,0.2,0.2,0.3,0.3c-0.1-0.1-0.2-0.2-0.4-0.2c0,0,0,0,0,0
			c-0.1,0.1-0.2,0.2-0.3,0.3c0.1-0.1,0.2-0.3,0.2-0.4c0,0,0,0-0.1-0.1C38.8,18,38.8,17.9,38.7,17.8C38.7,17.8,38.7,17.8,38.7,17.8
			C38.7,17.8,38.7,17.8,38.7,17.8"/>
	</g>
	<g>
		<path class="st1" d="M51.5,21.6l6.2-13.4C57.8,8.1,57.9,8,58.1,8h0.2c0.2,0,0.3,0.1,0.3,0.2l6.1,13.4c0.1,0.3,0,0.5-0.3,0.5h-1.7
			c-0.3,0-0.4-0.1-0.6-0.4l-1-2.2h-6l-1,2.2c-0.1,0.2-0.3,0.4-0.6,0.4h-1.7C51.6,22.2,51.4,21.9,51.5,21.6z M60.1,17.4l-2-4.4h-0.1
			l-2,4.4H60.1z"/>
		<path class="st1" d="M71.8,22.4c-0.9,0-1.8-0.2-2.2-0.4v4.5c0,0.2-0.2,0.4-0.4,0.4h-1.6c-0.2,0-0.4-0.2-0.4-0.4V13.3
			c0-0.2,0.2-0.4,0.5-0.4c0.8,0,1.3,0.5,1.4,1.2c0.5-0.6,1.5-1.3,2.9-1.3c2.5,0,4.4,2,4.4,4.8C76.4,20.3,74.6,22.4,71.8,22.4z
			 M69.6,19.6c0,0,0.8,0.5,1.9,0.5c1.5,0,2.3-1.2,2.3-2.5S73.1,15,71.7,15c-1.2,0-1.8,0.8-2,1.3V19.6z"/>
		<path class="st1" d="M84.3,22.4c-0.9,0-1.8-0.2-2.2-0.4v4.5c0,0.2-0.2,0.4-0.4,0.4H80c-0.2,0-0.4-0.2-0.4-0.4V13.3
			c0-0.2,0.2-0.4,0.5-0.4c0.8,0,1.3,0.5,1.4,1.2c0.5-0.6,1.5-1.3,2.9-1.3c2.5,0,4.4,2,4.4,4.8C88.9,20.3,87.1,22.4,84.3,22.4z
			 M82.1,19.6c0,0,0.8,0.5,1.9,0.5c1.5,0,2.3-1.2,2.3-2.5S85.6,15,84.1,15c-1.2,0-1.8,0.8-2,1.3V19.6z"/>
		<path class="st1" d="M92.1,8.7c0-0.2,0.2-0.4,0.4-0.4h1.6c0.2,0,0.4,0.2,0.4,0.4v13.1c0,0.2-0.2,0.4-0.4,0.4h-1.6
			c-0.2,0-0.4-0.2-0.4-0.4V8.7z"/>
		<path class="st1" d="M98.8,26.3l1.8-4.4l-3.1-8.3c-0.1-0.3,0-0.6,0.4-0.6h1.9c0.2,0,0.3,0.1,0.4,0.3l1.7,5.7h0l2.1-5.7
			c0.1-0.3,0.3-0.3,0.6-0.3h1.6c0.4,0,0.5,0.3,0.4,0.6l-5.4,13.1c-0.1,0.1-0.2,0.3-0.4,0.3h-1.7C98.8,26.9,98.6,26.6,98.8,26.3z"/>
		<path class="st1" d="M115.3,8.6c0-0.2,0.2-0.4,0.4-0.4h1.9c0.2,0,0.4,0.2,0.4,0.4v5.3h6.5V8.6c0-0.2,0.2-0.4,0.4-0.4h1.8
			c0.2,0,0.4,0.2,0.4,0.4v13.2c0,0.2-0.2,0.4-0.4,0.4h-1.8c-0.2,0-0.4-0.2-0.4-0.4v-5.5H118v5.5c0,0.2-0.2,0.4-0.4,0.4h-1.9
			c-0.2,0-0.4-0.2-0.4-0.4V8.6z"/>
		<path class="st1" d="M134.9,12.8c2.4,0,4.2,1.8,4.2,4.3c0,0.1,0,0.5,0,0.6c0,0.2-0.2,0.4-0.4,0.4h-5.9c0,1.1,1,2.1,2.3,2.1
			c0.9,0,1.6-0.3,2-0.7c0.2-0.2,0.5-0.2,0.6,0l0.8,1c0.2,0.2,0.2,0.4,0,0.6c-0.8,0.7-1.9,1.3-3.4,1.3c-2.7,0-4.7-2.2-4.7-4.8
			C130.3,15,132.2,12.8,134.9,12.8z M136.6,16.4c0-0.9-0.8-1.6-1.8-1.6c-1.1,0-1.8,0.7-2,1.6H136.6z"/>
		<path class="st1" d="M142.2,13.3c0-0.2,0.2-0.4,0.5-0.4c0.9,0,1.3,0.6,1.5,1.3c0.3-0.5,1.2-1.4,2.6-1.4c1.1,0,2,0.3,1.7,0.9
			l-0.6,1.4c-0.1,0.2-0.3,0.3-0.5,0.2s-0.4-0.2-0.9-0.2c-1,0-1.6,0.6-1.8,1v5.7c0,0.3-0.2,0.4-0.5,0.4h-1.5c-0.2,0-0.4-0.2-0.4-0.4
			V13.3z"/>
		<path class="st1" d="M154.9,12.8c2.4,0,4.2,1.8,4.2,4.3c0,0.1,0,0.5,0,0.6c0,0.2-0.2,0.4-0.4,0.4h-5.9c0,1.1,1,2.1,2.3,2.1
			c0.9,0,1.6-0.3,2-0.7c0.2-0.2,0.5-0.2,0.6,0l0.8,1c0.2,0.2,0.2,0.4,0,0.6c-0.8,0.7-1.9,1.3-3.4,1.3c-2.7,0-4.7-2.2-4.7-4.8
			C150.3,15,152.2,12.8,154.9,12.8z M156.7,16.4c0-0.9-0.8-1.6-1.8-1.6c-1.1,0-1.8,0.7-2,1.6H156.7z"/>
		<path class="st1" d="M162.9,16.9l-0.6-7.8c0-0.6,0.7-1.1,1.6-1.1c0.9,0,1.6,0.5,1.6,1.1l-0.5,7.8c0,0.3-0.5,0.6-1.1,0.6
			S162.9,17.3,162.9,16.9z M163.9,19.4c0.8,0,1.5,0.7,1.5,1.5c0,0.8-0.7,1.5-1.5,1.5c-0.8,0-1.5-0.7-1.5-1.5
			C162.4,20.1,163.1,19.4,163.9,19.4z"/>
	</g>
</g>
</svg>
